<svg width="24" height="24" viewBox="0 0 24 24" fill="none" xmlns="http://www.w3.org/2000/svg">
<path d="M18 20.9998C19.6569 20.9998 21 19.6566 21 17.9998C21 16.3429 19.6569 14.9998 18 14.9998C16.3431 14.9998 15 16.3429 15 17.9998C15 19.6566 16.3431 20.9998 18 20.9998Z" stroke="#1D1D1D" stroke-linecap="round" stroke-linejoin="round"/>
<path d="M6 9C7.65685 9 9 7.65685 9 6C9 4.34315 7.65685 3 6 3C4.34315 3 3 4.34315 3 6C3 7.65685 4.34315 9 6 9Z" stroke="#1D1D1D" stroke-linecap="round" stroke-linejoin="round"/>
<path d="M6 21V9C6 11.3869 6.94821 13.6761 8.63604 15.364C10.3239 17.0518 12.6131 18 15 18" stroke="#1D1D1D" stroke-linecap="round" stroke-linejoin="round"/>
</svg>
