<svg width="71" height="70" viewBox="0 0 71 70" fill="none" xmlns="http://www.w3.org/2000/svg">
<g clip-path="url(#clip0_1029_54493)">
<path d="M63.7847 6.94798C60.7121 3.87898 56.8568 1.71136 52.6381 0.680884C48.4194 -0.349591 43.9989 -0.203441 39.8575 1.10345C35.7161 2.41034 32.0124 4.82792 29.1493 8.09318C26.2862 11.3584 24.3733 15.3463 23.6189 19.623C23.5367 20.1103 23.4655 20.5921 23.4163 21.0849C23.367 21.5776 23.3232 22.054 23.3013 22.5413C23.3013 22.93 23.2684 23.3187 23.2684 23.7129V47.4423H43.7784C43.7784 47.0481 43.8113 46.6484 43.8167 46.2433V43.0567H27.6595V23.7349C27.6595 23.3297 27.6705 22.93 27.6924 22.5358C27.7252 22.0485 27.7745 21.5667 27.8402 21.0849C27.9059 20.6031 27.9935 20.1103 28.0975 19.6395C28.8345 16.2464 30.4717 13.1144 32.8371 10.5725C35.2025 8.03065 38.2088 6.17276 41.5402 5.19399C44.8716 4.21522 48.4051 4.1517 51.7695 5.01012C55.1339 5.86855 58.205 7.61723 60.6602 10.0724C63.1154 12.5277 64.8641 15.5988 65.7225 18.9632C66.5809 22.3276 66.5175 25.8611 65.5387 29.1925C64.5599 32.5239 62.702 35.5302 60.1602 37.8956C57.6183 40.261 54.4863 41.8982 51.0932 42.6351V46.2597C51.0932 46.5444 51.0932 46.8072 51.0932 47.1083C55.3733 46.3596 59.3657 44.4506 62.6357 41.5894C65.9056 38.7281 68.3276 35.0243 69.6377 30.8816C70.9479 26.7388 71.096 22.3159 70.0658 18.0947C69.0357 13.8736 66.8669 10.0161 63.7956 6.94254L63.7847 6.94798Z" fill="white"/>
<path d="M27.6595 26.9215H43.8113V46.2652C43.8113 46.6704 43.8113 47.0701 43.7729 47.4643C43.7401 47.9516 43.6963 48.4334 43.6251 48.9098C43.5539 49.3861 43.4773 49.8843 43.3732 50.3607C42.6374 53.7558 41.0006 56.8899 38.6349 59.4338C36.2692 61.9777 33.2619 63.8374 29.9291 64.8173C26.5963 65.7973 23.061 65.8614 19.6949 65.0029C16.3287 64.1445 13.2559 62.3951 10.7995 59.9387C8.3431 57.4823 6.59373 54.4095 5.73526 51.0434C4.87678 47.6772 4.94091 44.142 5.92089 40.8092C6.90088 37.4763 8.76054 34.469 11.3044 32.1033C13.8483 29.7376 16.9825 28.1008 20.3776 27.365V23.7404C20.3776 23.4521 20.3776 23.1674 20.3776 22.8863C15.9738 23.6538 11.8763 25.6493 8.55675 28.6431C5.23722 31.6369 2.83061 35.5073 1.61394 39.8086C0.397281 44.11 0.420045 48.6675 1.67961 52.9565C2.93918 57.2455 5.38433 61.0917 8.7336 64.0521C12.0829 67.0126 16.2001 68.9671 20.6113 69.6906C25.0225 70.4141 29.5483 69.8771 33.6678 68.1416C37.7873 66.4061 41.3329 63.5425 43.8965 59.8805C46.4601 56.2186 47.9375 51.9071 48.1585 47.4424C48.1585 47.2508 48.1585 47.0646 48.1585 46.8949C48.1585 46.7909 48.1585 46.6923 48.1585 46.5883C48.1585 46.4843 48.1585 46.3912 48.1585 46.2926V22.5359H27.6924C27.6705 22.9301 27.6595 23.3298 27.6595 23.735V26.9215Z" fill="#EBF1FC"/>
</g>
<defs>
<clipPath id="clip0_1029_54493">
<rect width="70" height="70" fill="white" transform="translate(0.738159)"/>
</clipPath>
</defs>
</svg>
