<svg width="108" height="108" viewBox="0 0 108 108" fill="none" xmlns="http://www.w3.org/2000/svg">
<g clip-path="url(#clip0_2942_37096)">
<mask id="mask0_2942_37096" style="mask-type:luminance" maskUnits="userSpaceOnUse" x="0" y="0" width="108" height="108">
<path d="M107.306 107.01L107 0.0100098L-4.82202e-05 0.316806L0.306748 107.316L107.306 107.01Z" fill="white"/>
</mask>
<g mask="url(#mask0_2942_37096)">
<path d="M96.4099 10.6705C101.103 15.3567 104.423 21.2387 106.009 27.6782C107.595 34.1177 107.388 40.8687 105.409 47.1985C103.43 53.5284 99.7552 59.1954 94.7833 63.5845C89.8114 67.9736 83.7324 70.9172 77.206 72.0958C76.4563 72.2179 75.7166 72.3301 74.9669 72.4122C74.2171 72.4944 73.4873 72.5565 72.7374 72.5886C72.1474 72.5903 71.5574 72.592 70.9474 72.5937L34.6875 72.6977L34.5979 41.4278C35.1979 41.4261 35.8077 41.3744 36.4277 41.3626L41.2977 41.3486L41.3685 66.0485L70.9084 65.9638C71.5284 65.962 72.1384 65.9603 72.7384 65.9586C73.4884 65.9564 74.218 65.8243 74.9577 65.7222C75.6974 65.6201 76.447 65.4879 77.1666 65.3259C82.233 64.2102 86.9166 61.7809 90.7468 58.2819C94.577 54.7829 97.4189 50.3375 98.9869 45.3924C100.555 40.4472 100.794 35.1765 99.68 30.1097C98.566 25.043 96.1381 20.3586 92.6403 16.5273C89.1426 12.696 84.6981 9.85267 79.7535 8.28302C74.8088 6.71337 69.5382 6.47267 64.471 7.5851C59.4039 8.69753 54.7188 11.1239 50.8864 14.6205C47.0539 18.117 44.2092 22.5606 42.638 27.5047C42.3674 28.2928 41.8574 28.9766 41.1794 29.4608C40.5013 29.945 39.6889 30.2054 38.8557 30.2056L35.0857 30.2164C36.2141 23.672 39.1161 17.5626 43.4759 12.5532C47.8356 7.54379 53.486 3.82635 59.812 1.80555C66.138 -0.215241 72.8971 -0.461945 79.3536 1.0923C85.8101 2.64654 91.7164 5.94217 96.4298 10.6204L96.4099 10.6705Z" fill="#FFFCF3"/>
<path d="M66.0385 65.9778L65.9735 43.3079C65.972 42.7774 65.7598 42.2693 65.3837 41.8953C65.0075 41.5213 64.4982 41.3121 63.9678 41.3136L36.3979 41.3927C35.7779 41.3944 35.1679 41.3962 34.5681 41.4579C33.8182 41.5101 33.0884 41.5822 32.3587 41.6842C31.629 41.7863 30.8694 41.9185 30.1398 42.0806C25.0644 43.1907 20.371 45.6185 16.5323 49.1194C12.6936 52.6203 9.84501 57.0708 8.27341 62.0228C6.7018 66.9748 6.46265 72.2535 7.58003 77.3273C8.6974 82.4012 11.1319 87.091 14.6383 90.9247C18.1447 94.7585 22.5993 97.6007 27.5536 99.1652C32.5078 100.73 37.7868 100.961 42.8591 99.8366C47.9313 98.7119 52.6177 96.2708 56.4463 92.7588C60.275 89.2469 63.1108 84.7883 64.6682 79.8318C64.9371 79.0419 65.4464 78.3558 66.1246 77.8697C66.8028 77.3836 67.616 77.1218 68.4505 77.1209L72.2204 77.1101C71.062 83.8434 68.0258 90.1128 63.4614 95.1966C58.8969 100.28 52.9897 103.972 46.4196 105.847C39.8495 107.721 32.8837 107.702 26.3238 105.792C19.764 103.882 13.8767 100.159 9.33973 95.0506C4.80276 89.9423 1.80044 83.6566 0.678357 76.9171C-0.443724 70.1777 0.360049 63.2583 2.99714 56.9555C5.63423 50.6527 9.99745 45.2226 15.5846 41.2903C21.1718 37.358 27.7558 35.0832 34.5788 34.7279L70.5786 34.6246C71.1091 34.6231 71.6184 34.8324 71.9945 35.2064C72.3707 35.5804 72.5828 36.0885 72.5843 36.6189L72.6683 65.9088C72.0683 65.9105 71.4583 65.9122 70.8383 65.914L66.0385 65.9778Z" fill="#1264FD"/>
</g>
</g>
<defs>
<clipPath id="clip0_2942_37096">
<rect width="107.04" height="107" fill="white" transform="translate(107) rotate(89.8357)"/>
</clipPath>
</defs>
</svg>
