<svg width="132" height="31" viewBox="0 0 132 31" fill="none" xmlns="http://www.w3.org/2000/svg">
<g clip-path="url(#clip0_2878_11558)">
<path d="M27.0199 3.47769C25.7031 2.16241 24.0508 1.23343 22.2428 0.791794C20.4348 0.350162 18.5403 0.412798 16.7654 0.972895C14.9905 1.53299 13.4032 2.5691 12.1761 3.96849C10.9491 5.36789 10.1293 7.07698 9.80594 8.90985C9.77074 9.11869 9.74024 9.32517 9.71912 9.53636C9.698 9.74754 9.67923 9.9517 9.66984 10.1605C9.66984 10.3271 9.65576 10.4937 9.65576 10.6627V20.8324H18.4458C18.4458 20.6635 18.4598 20.4922 18.4622 20.3185V18.9529H11.5377V10.6721C11.5377 10.4984 11.5424 10.3271 11.5517 10.1582C11.5658 9.94935 11.5869 9.74285 11.6151 9.53636C11.6433 9.32987 11.6808 9.11869 11.7254 8.91689C12.0412 7.46272 12.7429 6.12043 13.7566 5.03106C14.7704 3.9417 16.0588 3.14545 17.4865 2.72598C18.9143 2.30651 20.4286 2.27929 21.8705 2.64718C23.3124 3.01508 24.6286 3.76452 25.6808 4.81675C26.7331 5.86898 27.4825 7.18519 27.8504 8.62708C28.2183 10.069 28.1911 11.5833 27.7716 13.0111C27.3521 14.4388 26.5559 15.7272 25.4665 16.7409C24.3771 17.7547 23.0349 18.4563 21.5807 18.7722V20.3256C21.5807 20.4476 21.5807 20.5602 21.5807 20.6893C23.415 20.3684 25.126 19.5503 26.5274 18.324C27.9288 17.0978 28.9668 15.5104 29.5283 13.7349C30.0898 11.9595 30.1533 10.0639 29.7118 8.25486C29.2703 6.4458 28.3408 4.7926 27.0246 3.47536L27.0199 3.47769Z" fill="#1D1D1D"/>
<path d="M11.5376 12.0377H18.4598V20.3279C18.4598 20.5016 18.4598 20.6729 18.4434 20.8418C18.4293 21.0506 18.4105 21.2571 18.38 21.4613C18.3495 21.6654 18.3167 21.879 18.2721 22.0831C17.9567 23.5381 17.2552 24.8814 16.2414 25.9716C15.2275 27.0618 13.9386 27.8588 12.5103 28.2788C11.0819 28.6988 9.56683 28.7263 8.1242 28.3584C6.68156 27.9904 5.36466 27.2407 4.31191 26.188C3.25916 25.1352 2.50943 23.8183 2.14151 22.3757C1.77359 20.9331 1.80107 19.4179 2.22107 17.9896C2.64106 16.5613 3.43806 15.2724 4.5283 14.2585C5.61853 13.2446 6.96175 12.5432 8.41678 12.2278V10.6744C8.41678 10.5508 8.41678 10.4288 8.41678 10.3084C6.52946 10.6373 4.77338 11.4925 3.35072 12.7756C1.92806 14.0586 0.896659 15.7174 0.375232 17.5608C-0.146195 19.4042 -0.136439 21.3575 0.403374 23.1956C0.943188 25.0338 1.99111 26.6821 3.42651 27.9509C4.86192 29.2197 6.62645 30.0573 8.51696 30.3674C10.4075 30.6774 12.3471 30.4473 14.1126 29.7035C15.8781 28.9597 17.3976 27.7325 18.4963 26.1631C19.595 24.5936 20.2282 22.7459 20.3229 20.8324C20.3229 20.7503 20.3229 20.6705 20.3229 20.5978C20.3229 20.5532 20.3229 20.511 20.3229 20.4664C20.3229 20.4218 20.3229 20.3819 20.3229 20.3397V10.1582H11.5517C11.5423 10.3271 11.5376 10.4984 11.5376 10.6721V12.0377Z" fill="#595959"/>
</g>
<path d="M49.04 20.2H44.04L43.28 22.5H39.16L44.3 8.4H48.82L53.94 22.5H49.8L49.04 20.2ZM48.06 17.2L46.54 12.64L45.04 17.2H48.06ZM58.7377 7.7V22.5H54.8177V7.7H58.7377ZM66.63 14.54H64.87V22.5H60.93V14.54H59.71V11.28H60.93V11.18C60.93 9.74 61.35 8.64 62.19 7.88C63.0433 7.10667 64.2633 6.72 65.85 6.72C66.17 6.72 66.4167 6.72667 66.59 6.74V10.08C66.4833 10.0667 66.3367 10.06 66.15 10.06C65.7233 10.06 65.41 10.16 65.21 10.36C65.01 10.5467 64.8967 10.8533 64.87 11.28H66.63V14.54ZM71.5509 13.26C71.9909 12.62 72.5243 12.1133 73.1509 11.74C73.7776 11.3667 74.4509 11.18 75.1709 11.18V15.36H74.0709C73.2176 15.36 72.5843 15.5267 72.1709 15.86C71.7576 16.1933 71.5509 16.7733 71.5509 17.6V22.5H67.6309V11.28H71.5509V13.26ZM86.8963 16.76C86.8963 17.0667 86.8763 17.3733 86.8363 17.68H79.4163C79.4563 18.2933 79.6229 18.7533 79.9163 19.06C80.2229 19.3533 80.6096 19.5 81.0763 19.5C81.7296 19.5 82.1963 19.2067 82.4763 18.62H86.6563C86.4829 19.3933 86.1429 20.0867 85.6363 20.7C85.1429 21.3 84.5163 21.7733 83.7563 22.12C82.9963 22.4667 82.1563 22.64 81.2363 22.64C80.1296 22.64 79.1429 22.4067 78.2763 21.94C77.4229 21.4733 76.7496 20.8067 76.2563 19.94C75.7763 19.0733 75.5363 18.0533 75.5363 16.88C75.5363 15.7067 75.7763 14.6933 76.2563 13.84C76.7363 12.9733 77.4029 12.3067 78.2563 11.84C79.1229 11.3733 80.1163 11.14 81.2363 11.14C82.3429 11.14 83.3229 11.3667 84.1763 11.82C85.0296 12.2733 85.6963 12.9267 86.1763 13.78C86.6563 14.62 86.8963 15.6133 86.8963 16.76ZM82.8963 15.78C82.8963 15.3 82.7363 14.9267 82.4163 14.66C82.0963 14.38 81.6963 14.24 81.2163 14.24C80.7363 14.24 80.3429 14.3733 80.0363 14.64C79.7296 14.8933 79.5296 15.2733 79.4363 15.78H82.8963ZM95.4405 11.18C96.7338 11.18 97.7605 11.6133 98.5205 12.48C99.2805 13.3333 99.6605 14.4933 99.6605 15.96V22.5H95.7405V16.48C95.7405 15.84 95.5738 15.34 95.2405 14.98C94.9071 14.6067 94.4605 14.42 93.9005 14.42C93.3138 14.42 92.8538 14.6067 92.5205 14.98C92.1871 15.34 92.0205 15.84 92.0205 16.48V22.5H88.1005V11.28H92.0205V12.88C92.3671 12.3733 92.8338 11.9667 93.4205 11.66C94.0071 11.34 94.6805 11.18 95.4405 11.18ZM117.46 8.4V22.5H113.54V16.84H108.76V22.5H104.84V8.4H108.76V13.7H113.54V8.4H117.46ZM126.443 22.5L123.643 17.3H123.223V22.5H119.303V8.4H125.483C126.616 8.4 127.576 8.6 128.363 9C129.149 9.38667 129.743 9.92667 130.143 10.62C130.543 11.3 130.743 12.0667 130.743 12.92C130.743 13.88 130.476 14.7267 129.943 15.46C129.423 16.18 128.656 16.6933 127.643 17L130.823 22.5H126.443ZM123.223 14.62H125.163C125.696 14.62 126.096 14.4933 126.363 14.24C126.629 13.9867 126.763 13.62 126.763 13.14C126.763 12.6867 126.623 12.3333 126.343 12.08C126.076 11.8133 125.683 11.68 125.163 11.68H123.223V14.62Z" fill="#1D1D1D"/>
<defs>
<clipPath id="clip0_2878_11558">
<rect width="30" height="30" fill="white" transform="translate(0 0.5)"/>
</clipPath>
</defs>
</svg>
