<svg width="107" height="107" viewBox="0 0 107 107" fill="none" xmlns="http://www.w3.org/2000/svg">
<g clip-path="url(#clip0_915_2750)">
<path d="M10.6291 10.6203C15.3257 5.92911 21.2188 2.61574 27.6674 1.04058C34.1159 -0.534573 40.873 -0.311174 47.2034 1.68651C53.5339 3.68419 59.1953 7.37962 63.5717 12.3708C67.9482 17.362 70.8721 23.4578 72.0254 29.995C72.1509 30.7398 72.2597 31.4763 72.3351 32.2295C72.4104 32.9828 72.4773 33.7109 72.5108 34.4558C72.5108 35.05 72.561 35.6441 72.561 36.2467V72.5188H41.2101C41.2101 71.9162 41.1598 71.3052 41.1515 70.6859V65.8151H65.8489V36.2802C65.8489 35.6609 65.8322 35.05 65.7987 34.4474C65.7485 33.7025 65.6732 32.966 65.5727 32.2295C65.4723 31.493 65.3384 30.7399 65.1794 30.0201C64.0529 24.8335 61.5503 20.046 57.9346 16.1606C54.319 12.2752 49.7236 9.4353 44.6313 7.93918C39.5391 6.44306 34.1379 6.34597 28.9952 7.65813C23.8524 8.97029 19.158 11.6433 15.405 15.3963C11.652 19.1492 8.97909 23.8437 7.66692 28.9864C6.35476 34.1292 6.45181 39.5303 7.94792 44.6226C9.44404 49.7149 12.284 54.3102 16.1694 57.9259C20.0548 61.5416 24.8423 64.0442 30.0288 65.1707V70.7111C30.0288 71.1463 30.0288 71.548 30.0288 72.0083C23.4865 70.8638 17.3837 67.9458 12.3854 63.5721C7.38709 59.1985 3.68488 53.537 1.68222 47.2045C-0.320442 40.8719 -0.546761 34.1112 1.02787 27.6589C2.6025 21.2065 5.91772 15.3101 10.6123 10.612L10.6291 10.6203Z" fill="#1264FD"/>
<path d="M65.8491 41.1512H41.16V70.7195C41.16 71.3388 41.16 71.9498 41.2186 72.5524C41.2688 73.2972 41.3357 74.0337 41.4445 74.7618C41.5533 75.49 41.6705 76.2516 41.8295 76.9797C42.9543 82.1693 45.4562 86.9601 49.0724 90.8486C52.6886 94.7371 57.2854 97.5798 62.3799 99.0777C67.4743 100.576 72.8782 100.674 78.0236 99.3614C83.169 98.0492 87.866 95.3752 91.6208 91.6204C95.3756 87.8655 98.0496 83.1687 99.3619 78.0232C100.674 72.8778 100.576 67.4739 99.0781 62.3795C97.5801 57.2851 94.7375 52.6882 90.849 49.072C86.9605 45.4558 82.1697 42.9539 76.9801 41.8291V36.2887C76.9801 35.848 76.9801 35.4128 76.9801 34.9831C83.7115 36.1563 89.9748 39.2066 95.049 43.7828C100.123 48.359 103.802 54.2752 105.662 60.8501C107.521 67.4251 107.487 74.3916 105.561 80.9476C103.636 87.5037 99.8983 93.3828 94.7787 97.9081C89.6591 102.433 83.3656 105.421 76.6227 106.527C69.8799 107.633 62.9619 106.812 56.665 104.159C50.3681 101.506 44.9483 97.1291 41.0297 91.5315C37.111 85.9339 34.8527 79.3435 34.5148 72.5189C34.5148 72.226 34.5148 71.9414 34.5148 71.682C34.5148 71.523 34.5148 71.3723 34.5148 71.2133C34.5148 71.0543 34.5148 70.9121 34.5148 70.7614V34.4475H65.7988C65.8323 35.0501 65.8491 35.661 65.8491 36.2804V41.1512Z" fill="#1264FD"/>
</g>
<defs>
<clipPath id="clip0_915_2750">
<rect width="107" height="107" fill="white" transform="matrix(-1 0 0 1 107 0)"/>
</clipPath>
</defs>
</svg>
