<svg width="142" height="142" viewBox="0 0 142 142" fill="none" xmlns="http://www.w3.org/2000/svg">
<rect x="141.745" y="1.7533" width="140" height="140" rx="12" transform="rotate(90.6133 141.745 1.7533)" fill="#1264FD"/>
<g clip-path="url(#clip0_2956_941)">
<mask id="mask0_2956_941" style="mask-type:luminance" maskUnits="userSpaceOnUse" x="15" y="15" width="111" height="111">
<path d="M125.537 122.428L122.428 15.4728L15.4729 18.5818L18.5819 125.537L125.537 122.428Z" fill="white"/>
</mask>
<g mask="url(#mask0_2956_941)">
<path d="M112.121 26.4068C116.935 30.9685 120.408 36.7616 122.162 43.1573C123.917 49.553 123.886 56.3071 122.074 62.6867C120.261 69.0662 116.736 74.8275 111.881 79.3453C107.026 83.8631 101.026 86.9649 94.5324 88.314C93.7862 88.4558 93.0497 88.5872 92.3023 88.689C91.555 88.7907 90.827 88.8719 90.0782 88.9237C89.4885 88.9409 88.8987 88.958 88.289 88.9757L52.0443 90.0293L51.1357 58.7725C51.7354 58.7551 52.3437 58.6874 52.9632 58.6594L57.8311 58.5179L58.5488 83.2074L88.0763 82.3491C88.6961 82.3311 89.3058 82.3134 89.9056 82.2959C90.6553 82.2741 91.3812 82.123 92.118 82.0015C92.8547 81.8801 93.6006 81.7283 94.3157 81.5475C99.3511 80.2995 103.97 77.7483 107.707 74.1502C111.444 70.5521 114.168 66.0339 115.607 61.0493C117.045 56.0648 117.145 50.7896 115.899 45.7538C114.653 40.7179 112.103 36.0988 108.506 32.3604C104.909 28.622 100.392 25.896 95.4077 24.4564C90.4237 23.0168 85.1485 22.9143 80.1123 24.159C75.076 25.4038 70.456 27.952 66.7165 31.5477C62.977 35.1435 60.2496 39.66 58.8084 44.6436C58.5585 45.4385 58.0667 46.1354 57.4015 46.6372C56.7363 47.139 55.9311 47.4206 55.0982 47.4426L51.3298 47.5521C52.2863 40.9805 55.0273 34.7972 59.2544 29.6753C63.4815 24.5534 69.0326 20.6892 75.3035 18.5035C81.5744 16.3177 88.3247 15.894 94.8197 17.2787C101.315 18.6633 107.305 21.8031 112.14 26.3563L112.121 26.4068Z" fill="#EBF1FC"/>
<path d="M83.2085 82.4906L82.5498 59.8302C82.5344 59.3 82.3089 58.7976 81.9231 58.4336C81.5373 58.0696 81.0227 57.8737 80.4925 57.8891L52.9341 58.6902C52.3144 58.7082 51.7047 58.726 51.1067 58.8034C50.3584 58.8751 49.6308 58.9663 48.904 59.0875C48.1772 59.2087 47.4213 59.3607 46.6962 59.5418C41.6516 60.7845 37.0235 63.3343 33.2777 66.9346C29.532 70.5348 26.801 75.0584 25.3596 80.0499C23.9182 85.0414 23.8174 90.3245 25.0673 95.3673C26.3172 100.41 28.8736 105.035 32.4793 108.775C36.0849 112.516 40.6124 115.24 45.6059 116.675C50.5995 118.109 55.8827 118.202 60.9237 116.945C65.9648 115.688 70.5856 113.125 74.321 109.514C78.0564 105.903 80.7744 101.371 82.2015 96.3757C82.4496 95.5791 82.9407 94.8799 83.606 94.3762C84.2712 93.8725 85.0773 93.5895 85.9114 93.5667L89.6799 93.4572C88.6982 100.219 85.8272 106.565 81.3975 111.767C76.9677 116.969 71.1592 120.814 64.6405 122.86C58.1217 124.905 51.1578 125.069 44.5502 123.332C37.9425 121.594 31.9598 118.026 27.2906 113.038C22.6214 108.051 19.4555 101.846 18.1573 95.138C16.859 88.4302 17.4813 81.4922 19.9524 75.1225C22.4236 68.7528 26.6431 63.2103 32.1253 59.133C37.6076 55.0557 44.1297 52.6093 50.9411 52.0753L86.9259 51.0293C87.4561 51.0139 87.9707 51.2097 88.3565 51.5738C88.7423 51.9378 88.9677 52.4401 88.9832 52.9703L89.8342 82.248C89.2345 82.2654 88.6247 82.2831 88.005 82.3012L83.2085 82.4906Z" fill="white"/>
</g>
</g>
<defs>
<clipPath id="clip0_2956_941">
<rect width="107.04" height="107" fill="white" transform="translate(122.427 15.4628) rotate(88.335)"/>
</clipPath>
</defs>
</svg>
