<svg width="140" height="140" viewBox="0 0 140 140" fill="none" xmlns="http://www.w3.org/2000/svg">
<rect width="140" height="140" rx="12" fill="#1264FD"/>
<g clip-path="url(#clip0_915_2836)">
<mask id="mask0_915_2836" style="mask-type:luminance" maskUnits="userSpaceOnUse" x="16" y="17" width="108" height="107">
<path d="M123.01 17H16.01V124H123.01V17Z" fill="white"/>
</mask>
<g mask="url(#mask0_915_2836)">
<path d="M26.6399 27.6199C31.3396 22.9405 37.2311 19.6376 43.6751 18.0697C50.1191 16.5017 56.8695 16.7286 63.1937 18.7257C69.5178 20.7228 75.1743 24.4139 79.5491 29.3983C83.9239 34.3827 86.8501 40.4701 88.0099 46.9999C88.1299 47.7499 88.2399 48.4899 88.3199 49.2399C88.3999 49.9899 88.4599 50.7199 88.4899 51.4699C88.4899 52.0599 88.4899 52.6499 88.4899 53.2599V89.5199H57.2199C57.2199 88.9199 57.1699 88.3099 57.1599 87.6899V82.8199H81.8599V53.2799C81.8599 52.6599 81.8599 52.0499 81.8599 51.4499C81.8599 50.6999 81.7299 49.9699 81.6299 49.2299C81.5299 48.4899 81.3999 47.7399 81.2399 47.0199C80.1388 41.9503 77.7229 37.2598 74.2349 33.4196C70.7469 29.5794 66.3097 26.7247 61.3691 25.1425C56.4285 23.5602 51.1584 23.3061 46.0885 24.4056C41.0185 25.5051 36.3272 27.9195 32.4859 31.4063C28.6446 34.8931 25.7886 39.3294 24.2047 44.2695C22.6209 49.2096 22.3651 54.4796 23.463 59.5499C24.5609 64.6202 26.9738 69.3122 30.4594 73.1547C33.9449 76.9971 38.3803 79.8546 43.3199 81.4399C44.1072 81.7128 44.7896 82.2247 45.2719 82.9042C45.7541 83.5836 46.0121 84.3967 46.0099 85.2299V88.9999C39.4689 87.8528 33.3678 84.9333 28.3709 80.5592C23.374 76.1851 19.6728 70.5241 17.6701 64.1923C15.6675 57.8605 15.4401 51.1007 17.0129 44.6488C18.5856 38.1968 21.8982 32.2999 26.5899 27.5999L26.6399 27.6199Z" fill="white"/>
<path d="M81.86 58.15H59.19C58.6596 58.15 58.1509 58.3607 57.7758 58.7358C57.4007 59.1109 57.19 59.6196 57.19 60.15V87.72C57.19 88.34 57.19 88.95 57.25 89.55C57.3 90.3 57.37 91.03 57.47 91.76C57.57 92.49 57.7 93.25 57.86 93.98C58.9556 99.0586 61.3698 103.759 64.8597 107.608C68.3496 111.456 72.792 114.318 77.7395 115.904C82.6869 117.489 87.9649 117.744 93.0419 116.641C98.1189 115.538 102.816 113.117 106.66 109.622C110.503 106.126 113.358 101.68 114.937 96.7299C116.516 91.7802 116.762 86.5019 115.652 81.4264C114.542 76.351 112.114 71.6577 108.613 67.8189C105.113 63.9802 100.662 61.1316 95.71 59.56C94.9209 59.2888 94.2363 58.7776 93.7522 58.098C93.268 57.4184 93.0085 56.6044 93.01 55.77V52C99.74 53.1777 106.001 56.2319 111.071 60.8109C116.142 65.3899 119.817 71.3077 121.672 77.8832C123.528 84.4586 123.489 91.4243 121.561 97.9787C119.632 104.533 115.892 110.41 110.77 114.932C105.649 119.454 99.3546 122.439 92.6119 123.541C85.8693 124.644 78.9522 123.82 72.657 121.165C66.3618 118.51 60.9443 114.131 57.028 108.533C53.1117 102.934 50.8558 96.344 50.52 89.52V53.52C50.52 52.9896 50.7307 52.4809 51.1058 52.1058C51.4809 51.7307 51.9896 51.52 52.52 51.52H81.81C81.81 52.12 81.81 52.73 81.81 53.35L81.86 58.15Z" fill="white"/>
</g>
</g>
<defs>
<clipPath id="clip0_915_2836">
<rect width="107.04" height="107" fill="white" transform="translate(16 17)"/>
</clipPath>
</defs>
</svg>
