<svg width="25" height="24" viewBox="0 0 25 24" fill="none" xmlns="http://www.w3.org/2000/svg">
<path d="M15.113 5.95264V10.0604L16.55 10.9641C16.6019 10.9755 16.6556 10.9755 16.7075 10.9641L22.886 6.79864C22.8815 6.59647 22.8075 6.40202 22.6765 6.24796C22.5455 6.0939 22.3655 5.98962 22.1667 5.95264H15.113Z" fill="#0072C6"/>
<path d="M15.113 11.5927L16.4232 12.4927C16.4846 12.5301 16.555 12.5498 16.6269 12.5498C16.6987 12.5498 16.7691 12.5301 16.8305 12.4927C16.6055 12.6285 22.8852 8.45923 22.8852 8.45923V16.0087C22.9016 16.1617 22.8844 16.3164 22.8347 16.462C22.785 16.6076 22.7041 16.7407 22.5977 16.8517C22.4913 16.9628 22.3618 17.0493 22.2185 17.1051C22.0751 17.161 21.9213 17.1848 21.7677 17.175H15.1122L15.113 11.5927ZM8.32998 9.69898C8.11227 9.69793 7.89834 9.7558 7.71085 9.86644C7.52336 9.97709 7.36929 10.1364 7.26498 10.3275C6.98006 10.834 6.84336 11.4105 6.87048 11.991C6.84087 12.5703 6.97776 13.146 7.26498 13.65C7.36886 13.8332 7.51913 13.9858 7.7007 14.0926C7.88226 14.1993 8.08873 14.2564 8.29934 14.2581C8.50995 14.2598 8.7173 14.206 8.90053 14.1021C9.08377 13.9983 9.23645 13.848 9.34323 13.6665C9.62731 13.1648 9.76137 12.5921 9.72948 12.0165C9.76201 11.4228 9.63238 10.8314 9.35448 10.3057C9.25516 10.1209 9.10725 9.96666 8.92669 9.85973C8.74614 9.7528 8.53981 9.69721 8.32998 9.69898Z" fill="#0072C6"/>
<path d="M2.11475 3.86625V19.9365L14.3397 22.5V1.5L2.11475 3.86625ZM10.2957 14.6182C10.0671 14.9406 9.76298 15.2022 9.41002 15.3801C9.05706 15.558 8.66593 15.6469 8.27075 15.639C7.88551 15.6458 7.50431 15.5595 7.15958 15.3874C6.81486 15.2153 6.51679 14.9625 6.29075 14.6505C5.75464 13.902 5.48645 12.9947 5.5295 12.075C5.48389 11.1102 5.75692 10.1572 6.3065 9.363C6.53807 9.03445 6.84692 8.76791 7.20582 8.5869C7.56472 8.40588 7.96264 8.31594 8.3645 8.325C8.74695 8.31733 9.12543 8.40365 9.46673 8.57639C9.80803 8.74913 10.1017 9.00302 10.322 9.31575C10.8527 10.0805 11.1164 10.9989 11.072 11.9288C11.1188 12.8865 10.8457 13.8327 10.2957 14.6182Z" fill="#0072C6"/>
</svg>
