<svg width="25" height="24" viewBox="0 0 25 24" fill="none" xmlns="http://www.w3.org/2000/svg">
<path d="M15.5 7C16.6046 7 17.5 7.89543 17.5 9M21.5 9C21.5 12.3137 18.8137 15 15.5 15C14.8938 15 14.3087 14.9101 13.7571 14.7429L11.5 17H9.5V19H7.5V21H4.5C3.94772 21 3.5 20.5523 3.5 20V17.4142C3.5 17.149 3.60536 16.8946 3.79289 16.7071L9.75707 10.7429C9.58989 10.1914 9.5 9.60617 9.5 9C9.5 5.68629 12.1863 3 15.5 3C18.8137 3 21.5 5.68629 21.5 9Z" stroke="#111827" stroke-linecap="round" stroke-linejoin="round"/>
</svg>
