<svg width="18" height="18" viewBox="0 0 18 18" fill="none" xmlns="http://www.w3.org/2000/svg">
<g clip-path="url(#clip0_907_541)">
<path d="M17.205 11.9099L16.11 5.77493C15.825 4.16243 14.4225 2.99243 12.7875 2.99243H12.3675C12.6 2.67743 12.7425 2.28743 12.7425 1.86743C12.7425 0.832432 11.9025 -0.00756836 10.8675 -0.00756836H7.11746C6.08246 -0.00756836 5.24246 0.832432 5.24246 1.86743C5.24246 2.28743 5.38496 2.67743 5.61746 2.99243H5.19746C3.56246 2.99243 2.15996 4.16243 1.87496 5.77493L0.794964 11.9099C0.659964 12.6749 0.869964 13.4624 1.36496 14.0549C1.86746 14.6549 2.60246 14.9924 3.37496 14.9924H5.99996C5.99996 16.6499 7.34246 17.9924 8.99996 17.9924C10.6575 17.9924 12 16.6499 12 14.9924H14.625C15.405 14.9924 16.14 14.6474 16.635 14.0549C17.1375 13.4549 17.34 12.6749 17.205 11.9099ZM5.99996 1.87493C5.99996 1.25243 6.50246 0.749932 7.12496 0.749932H10.875C11.4975 0.749932 12 1.25243 12 1.87493C12 2.49743 11.4975 2.99993 10.875 2.99993H7.12496C6.50246 2.99993 5.99996 2.49743 5.99996 1.87493ZM8.99996 17.2499C7.76246 17.2499 6.74996 16.2374 6.74996 14.9999H11.25C11.25 16.2374 10.2375 17.2499 8.99996 17.2499ZM16.065 13.5749C15.705 14.0024 15.18 14.2499 14.625 14.2499H3.37496C2.81996 14.2499 2.29496 14.0024 1.93496 13.5749C1.57496 13.1474 1.43246 12.5924 1.52996 12.0449L2.62496 5.90993C2.84996 4.65743 3.93746 3.74993 5.21246 3.74993H12.795C14.07 3.74993 15.1575 4.65743 15.3825 5.90993L16.4775 12.0449C16.575 12.5924 16.425 13.1549 16.0725 13.5749H16.065Z" fill="white"/>
</g>
<defs>
<clipPath id="clip0_907_541">
<rect width="18" height="18" fill="white"/>
</clipPath>
</defs>
</svg>
