<svg width="20" height="20" viewBox="0 0 20 20" fill="none" xmlns="http://www.w3.org/2000/svg">
<path d="M14.2098 0.0837989C14.1538 0.027933 14.0979 0 14.014 0H5.95804C5.87413 0 5.81818 0.027933 5.76224 0.0837989L0.0839164 5.78212C0.0279723 5.83799 0 5.89386 0 5.97765V14.0223C0 14.1061 0.0279723 14.162 0.0839164 14.2179L5.79021 19.9162C5.84615 19.9721 5.9021 20 5.98601 20H14.042C14.1259 20 14.1818 19.9721 14.2378 19.9162L19.9161 14.2179C19.972 14.162 20 14.1061 20 14.0223V5.97765C20 5.89386 19.972 5.83799 19.9161 5.78212L14.2098 0.0837989ZM12.6713 12.3184C12.7832 12.3743 12.8951 12.3184 12.979 12.2346L14.6853 10.2235C14.9091 9.97207 15.2727 9.94413 15.5245 10.1397C15.7762 10.3352 15.8601 10.6983 15.6643 10.9777L13.3427 14.6369C12.6713 15.6983 11.5245 16.3687 10.2657 16.3966C9.11888 16.4525 7.91608 15.9497 7.13287 14.9721L12.5035 9.63687V12.067C12.5035 12.1788 12.5594 12.2626 12.6713 12.3184ZM3.97203 17.3184L2.62937 15.9777L16 2.65363L17.3427 3.99441L3.97203 17.3184ZM7.69231 9.41341C7.86014 9.41341 7.97203 9.30168 7.97203 9.13408V6.84358V4.88827C7.97203 4.58101 8.22378 4.30168 8.53147 4.30168C8.83916 4.27374 9.11888 4.55307 9.11888 4.86034V8.71508L6.29371 11.5363V6.87151C6.29371 6.56425 6.54545 6.28492 6.85315 6.28492C7.18881 6.28492 7.41259 6.53631 7.41259 6.84358V9.13408C7.41259 9.30168 7.55245 9.41341 7.69231 9.41341ZM10.7972 5.53073V7.01117L9.67832 8.12849V4.86034V4.16201C9.67832 3.85475 9.93007 3.57542 10.2378 3.57542C10.5455 3.54749 10.8252 3.82682 10.8252 4.13408L10.7972 5.53073ZM11.3566 5.53073C11.3566 5.22346 11.6084 4.97207 11.9161 4.97207C12.1678 4.97207 12.3916 5.11173 12.4476 5.39106L11.3287 6.48045L11.3566 5.53073ZM0.559441 6.08939L6.06993 0.558659H13.9021L15.6084 2.26257L12.9231 4.94413C12.7273 4.60894 12.3636 4.38548 11.972 4.38548C11.7762 4.38548 11.5804 4.44134 11.4126 4.55307V4.13408C11.4126 3.49162 10.9091 2.98883 10.2657 3.01676C9.73427 3.01676 9.31469 3.40782 9.2028 3.91061C9.03497 3.79888 8.81119 3.74302 8.58741 3.74302C7.97203 3.74302 7.4965 4.27374 7.4965 4.88827V5.89385C7.32867 5.78212 7.1049 5.72626 6.90909 5.72626C6.29371 5.75419 5.81818 6.25698 5.81818 6.87151V12.095L2.23776 15.5866L0.559441 13.9106V6.08939ZM19.4126 13.8827L13.9021 19.4134H6.06993L4.39161 17.7095L6.76923 15.3631C7.72028 16.5084 9.2028 17.067 10.3217 16.9553C11.7483 16.8994 13.0909 16.1453 13.8462 14.9162L16.1678 11.257C16.5035 10.7263 16.3636 10.0559 15.8881 9.69274C15.3846 9.32961 14.6853 9.38548 14.2657 9.88827L13.0629 11.2849V9.07821L17.7343 4.41341L19.4126 6.08939V13.8827Z" fill="#595959"/>
</svg>
