<svg width="20" height="21" viewBox="0 0 20 21" fill="none" xmlns="http://www.w3.org/2000/svg">
<g clip-path="url(#clip0_886_2467)">
<path d="M10 10C12.7575 10 15 7.7575 15 5C15 2.2425 12.7575 0 10 0C7.2425 0 5 2.2425 5 5C5 7.7575 7.2425 10 10 10ZM10 0.833333C12.2975 0.833333 14.1667 2.7025 14.1667 5C14.1667 7.2975 12.2975 9.16667 10 9.16667C7.7025 9.16667 5.83333 7.2975 5.83333 5C5.83333 2.7025 7.7025 0.833333 10 0.833333Z" fill="white"/>
<path d="M9.5 12C9.224 12 9 11.776 9 11.5C9 11.224 9.224 11 9.5 11H10C15.238 11 19.5 15.262 19.5 20.5C19.5 20.776 19.276 21 19 21C18.724 21 18.5 20.776 18.5 20.5C18.5 15.813 14.687 12 10 12H9.5Z" fill="white"/>
<path d="M10 12C10.276 12 10.5 11.776 10.5 11.5C10.5 11.224 10.276 11 10 11H9.5C4.262 11 0 15.262 0 20.5C0 20.776 0.224 21 0.5 21C0.776 21 1 20.776 1 20.5C1 15.813 4.813 12 9.5 12H10Z" fill="white"/>
</g>
<defs>
<clipPath id="clip0_886_2467">
<rect width="20" height="21" fill="white"/>
</clipPath>
</defs>
</svg>
