<svg width="20" height="20" viewBox="0 0 20 20" fill="none" xmlns="http://www.w3.org/2000/svg">
<g clip-path="url(#clip0_931_2754)">
<path d="M17.9167 3.33333H15V2.08333C15 0.934167 14.065 0 12.9167 0H2.08333C0.935 0 0 0.934167 0 2.08333V15.295C0 15.8017 0.2775 16.2667 0.725 16.5058C0.929167 16.615 1.15167 16.6683 1.37417 16.6683C1.64 16.6683 1.905 16.5908 2.135 16.4383L5 14.5283V17.5H14.4575L17.865 19.7725C18.095 19.9258 18.36 20.0025 18.6258 20.0025C18.8483 20.0025 19.0708 19.9492 19.275 19.84C19.7225 19.6008 20 19.1358 20 18.6292V5.41667C20 4.2675 19.065 3.33333 17.9167 3.33333ZM1.6725 15.7458C1.505 15.8592 1.2975 15.8683 1.11833 15.7717C0.94 15.6767 0.833333 15.4983 0.833333 15.2958V2.08333C0.833333 1.39417 1.39417 0.833333 2.08333 0.833333H12.9167C13.6058 0.833333 14.1667 1.39417 14.1667 2.08333V13.3333H5.29083L1.6725 15.7458ZM19.1667 18.6292C19.1667 18.8317 19.06 19.01 18.8817 19.105C18.7025 19.2008 18.4967 19.1917 18.3275 19.0792L14.71 16.6667H5.83333V14.1667H15V4.16667H17.9167C18.6058 4.16667 19.1667 4.7275 19.1667 5.41667V18.6292Z" fill="white"/>
<path d="M8.83333 6.83333C8.83333 7.29333 8.46 7.66667 8 7.66667C7.54 7.66667 7.16667 7.29333 7.16667 6.83333C7.16667 6.37333 7.54 6 8 6C8.46 6 8.83333 6.37333 8.83333 6.83333ZM12 6.83333C12 7.29333 11.6267 7.66667 11.1667 7.66667C10.7067 7.66667 10.3333 7.29333 10.3333 6.83333C10.3333 6.37333 10.7067 6 11.1667 6C11.6267 6 12 6.37333 12 6.83333ZM5.66667 6.83333C5.66667 7.29333 5.29333 7.66667 4.83333 7.66667C4.37333 7.66667 4 7.29333 4 6.83333C4 6.37333 4.37333 6 4.83333 6C5.29333 6 5.66667 6.37333 5.66667 6.83333Z" fill="white"/>
</g>
<defs>
<clipPath id="clip0_931_2754">
<rect width="20" height="20" fill="white"/>
</clipPath>
</defs>
</svg>
