<svg width="14" height="14" viewBox="0 0 14 14" fill="none" xmlns="http://www.w3.org/2000/svg">
<g clip-path="url(#clip0_1668_41592)">
<path d="M2.625 0.583727H5.84208C6.03692 0.583727 6.22883 0.601227 6.41667 0.63506V3.79206C6.41667 4.59589 7.07117 5.25039 7.875 5.25039H11.0314C11.0507 5.35423 11.0647 5.45981 11.0728 5.56598C11.0857 5.7264 11.2327 5.8454 11.3872 5.83314C11.5477 5.82031 11.6672 5.67915 11.6544 5.51873C11.5815 4.62273 11.1918 3.77981 10.556 3.14456L8.52308 1.11164C7.80675 0.39531 6.85475 0.000976779 5.84208 0.000976779H2.625C1.17775 0.000393446 0 1.17814 0 2.62539V11.3754C0 12.8226 1.17775 14.0004 2.625 14.0004H4.95833C5.11933 14.0004 5.25 13.8697 5.25 13.7087C5.25 13.5477 5.11933 13.4171 4.95833 13.4171H2.625C1.49917 13.4171 0.583333 12.5012 0.583333 11.3754V2.62539C0.583333 1.49956 1.49917 0.583727 2.625 0.583727ZM10.1436 3.55639C10.4615 3.87431 10.7065 4.25348 10.8669 4.66706H7.875C7.39258 4.66706 7 4.27448 7 3.79206V0.798394C7.41183 0.957644 7.78925 1.20206 8.11067 1.52348L10.1436 3.55639ZM13.5724 6.84406C13.0223 6.2934 12.0604 6.2934 11.5103 6.84406L7.01458 11.3398C6.629 11.7254 6.41667 12.2381 6.41667 12.7836V13.7087C6.41667 13.8697 6.54733 14.0004 6.70833 14.0004H7.6335C8.17892 14.0004 8.69167 13.7881 9.07725 13.4025L13.573 8.90673C13.8483 8.6314 14 8.26506 14 7.8754C14 7.48573 13.8477 7.1194 13.5724 6.84406ZM13.16 8.49373L8.66425 12.9895C8.38892 13.2648 8.02258 13.4165 7.63292 13.4165H6.99942V12.783C6.99942 12.3933 7.15108 12.0276 7.42642 11.7516L11.9222 7.2559C12.2523 6.92573 12.8292 6.92573 13.1594 7.2559C13.3245 7.42098 13.4155 7.6409 13.4155 7.87481C13.4155 8.10873 13.3251 8.32806 13.16 8.49373Z" fill="#1264FD"/>
</g>
<defs>
<clipPath id="clip0_1668_41592">
<rect width="14" height="14" fill="white"/>
</clipPath>
</defs>
</svg>
