<svg width="20" height="17" viewBox="0 0 20 17" fill="none" xmlns="http://www.w3.org/2000/svg">
<path d="M17.7843 6.36083C18.0314 6.23833 18.2578 6.09833 18.4706 5.935V15H2V4.79167C2 3.98667 2.76863 3.33333 3.71569 3.33333H11.6078V3.91667H3.71569C3.35196 3.91667 3.02941 4.08 2.84412 4.325L8.52647 9.14917C9.43235 9.91917 11.0176 9.91917 11.9235 9.14917L14.7304 6.7225C15.0049 6.78083 15.2863 6.81583 15.5745 6.82167L12.4039 9.5575C11.8206 10.0533 11.0451 10.3275 10.2216 10.3275C9.39804 10.3275 8.62255 10.0533 8.03922 9.5575L2.68627 5.01333V14.4167H17.7843V6.36083ZM12.9804 3.33333C12.9804 2.04417 14.2088 1 15.7255 1C17.2422 1 18.4706 2.04417 18.4706 3.33333C18.4706 4.6225 17.2422 5.66667 15.7255 5.66667C14.2088 5.66667 12.9804 4.6225 12.9804 3.33333ZM13.6667 3.33333C13.6667 4.29583 14.5931 5.08333 15.7255 5.08333C16.8578 5.08333 17.7843 4.29583 17.7843 3.33333C17.7843 2.37083 16.8578 1.58333 15.7255 1.58333C14.5931 1.58333 13.6667 2.37083 13.6667 3.33333Z" fill="#595959"/>
</svg>
