<svg width="25" height="25" viewBox="0 0 25 25" fill="none" xmlns="http://www.w3.org/2000/svg">
<g clip-path="url(#clip0_1029_54814)">
<path d="M24.0958 12.6103C24.0958 11.8131 24.0312 11.0116 23.8933 10.2273H12.8313V14.7434H19.166C18.9031 16.2 18.0585 17.4885 16.8217 18.3072V21.2375H20.601C22.8203 19.1949 24.0958 16.1784 24.0958 12.6103Z" fill="#4285F4"/>
<path d="M12.8313 24.0688C15.9943 24.0688 18.6618 23.0303 20.6053 21.2376L16.826 18.3073C15.7745 19.0226 14.4171 19.4277 12.8356 19.4277C9.77599 19.4277 7.1818 17.3636 6.25099 14.5884H2.35107V17.6092C4.34197 21.5694 8.39702 24.0688 12.8313 24.0688Z" fill="#34A853"/>
<path d="M6.24666 14.5885C5.7554 13.132 5.7554 11.5548 6.24666 10.0982V7.07739H2.35106C0.687669 10.3912 0.687669 14.2955 2.35106 17.6093L6.24666 14.5885Z" fill="#FBBC04"/>
<path d="M12.8313 5.25445C14.5033 5.2286 16.1193 5.85775 17.3302 7.01265L20.6785 3.66432C18.5583 1.67343 15.7444 0.578865 12.8313 0.613339C8.39701 0.613339 4.34197 3.11273 2.35107 7.07729L6.24668 10.0981C7.17317 7.31861 9.77168 5.25445 12.8313 5.25445Z" fill="#EA4335"/>
</g>
<defs>
<clipPath id="clip0_1029_54814">
<rect width="23.4555" height="23.4555" fill="white" transform="translate(0.869019 0.612549)"/>
</clipPath>
</defs>
</svg>
