<svg width="20" height="20" viewBox="0 0 20 20" fill="none" xmlns="http://www.w3.org/2000/svg">
<g clip-path="url(#clip0_852_5457)">
<path d="M16.25 20H3.75C1.6825 20 0 18.3175 0 16.25V7.9675C0 6.72 0.6175 5.5575 1.6525 4.86L7.9025 0.642499C9.175 -0.218334 10.8233 -0.218334 12.0975 0.642499L18.3467 4.86C19.3817 5.55833 19.9992 6.72 19.9992 7.9675V16.25C19.9992 18.3175 18.3175 20 16.25 20ZM10 0.829999C9.43167 0.829999 8.86417 0.997499 8.36917 1.3325L2.11833 5.54917C1.31333 6.0925 0.833333 6.99583 0.833333 7.96667V16.2492C0.833333 17.8575 2.14167 19.1658 3.75 19.1658H16.25C17.8583 19.1658 19.1667 17.8575 19.1667 16.2492V7.9675C19.1667 6.99667 18.6867 6.09333 17.8817 5.55L11.6317 1.3325C11.1358 0.998332 10.5683 0.829999 10 0.829999Z" fill="#595959"/>
<path d="M7.4 15C7.4 14.1163 8.11634 13.4 9 13.4H11C11.8837 13.4 12.6 14.1163 12.6 15V19.6H7.4V15Z" stroke="#595959" stroke-width="0.8"/>
</g>
<defs>
<clipPath id="clip0_852_5457">
<rect width="20" height="20" fill="white"/>
</clipPath>
</defs>
</svg>
