<svg width="24" height="24" viewBox="0 0 24 24" fill="none" xmlns="http://www.w3.org/2000/svg">
<g clip-path="url(#clip0_850_2459)">
<mask id="path-1-inside-1_850_2459" fill="white">
<path d="M23.9789 23.2711L17.4109 16.7031C19.0179 14.9281 20.0069 12.5831 20.0069 10.0061C20.0059 4.4921 15.5199 0.00610352 10.0059 0.00610352C4.49186 0.00610352 0.00585938 4.4921 0.00585938 10.0061C0.00585938 15.5201 4.49186 20.0061 10.0059 20.0061C12.5829 20.0061 14.9279 19.0181 16.7029 17.4101L23.2709 23.9781L23.9789 23.2711ZM1.00586 10.0061C1.00586 5.0431 5.04286 1.0061 10.0059 1.0061C14.9689 1.0061 19.0059 5.0441 19.0059 10.0061C19.0059 14.9681 14.9689 19.0061 10.0059 19.0061C5.04286 19.0061 1.00586 14.9681 1.00586 10.0061Z"/>
</mask>
<path d="M23.9789 23.2711L17.4109 16.7031C19.0179 14.9281 20.0069 12.5831 20.0069 10.0061C20.0059 4.4921 15.5199 0.00610352 10.0059 0.00610352C4.49186 0.00610352 0.00585938 4.4921 0.00585938 10.0061C0.00585938 15.5201 4.49186 20.0061 10.0059 20.0061C12.5829 20.0061 14.9279 19.0181 16.7029 17.4101L23.2709 23.9781L23.9789 23.2711ZM1.00586 10.0061C1.00586 5.0431 5.04286 1.0061 10.0059 1.0061C14.9689 1.0061 19.0059 5.0441 19.0059 10.0061C19.0059 14.9681 14.9689 19.0061 10.0059 19.0061C5.04286 19.0061 1.00586 14.9681 1.00586 10.0061Z" fill="#595959"/>
<path d="M23.9789 23.2711L25.3921 24.6863L26.8083 23.2721L25.3931 21.8569L23.9789 23.2711ZM17.4109 16.7031L15.9282 15.3608L14.6509 16.7716L15.9966 18.1173L17.4109 16.7031ZM20.0069 10.0061H22.0069V10.0057L20.0069 10.0061ZM16.7029 17.4101L18.1171 15.9959L16.7709 14.6498L15.3601 15.9279L16.7029 17.4101ZM23.2709 23.9781L21.8566 25.3923L23.2699 26.8055L24.6841 25.3933L23.2709 23.9781ZM25.3931 21.8569L18.8251 15.2889L15.9966 18.1173L22.5646 24.6853L25.3931 21.8569ZM18.8935 18.0454C20.8148 15.9232 22.0069 13.1063 22.0069 10.0061H18.0069C18.0069 12.0599 17.2209 13.933 15.9282 15.3608L18.8935 18.0454ZM22.0069 10.0057C22.0057 3.38753 16.6245 -1.9939 10.0059 -1.9939V2.0061C14.4152 2.0061 18.0061 5.59668 18.0069 10.0065L22.0069 10.0057ZM10.0059 -1.9939C3.38729 -1.9939 -1.99414 3.38753 -1.99414 10.0061H2.00586C2.00586 5.59667 5.59643 2.0061 10.0059 2.0061V-1.9939ZM-1.99414 10.0061C-1.99414 16.6247 3.38729 22.0061 10.0059 22.0061V18.0061C5.59643 18.0061 2.00586 14.4155 2.00586 10.0061H-1.99414ZM10.0059 22.0061C13.1056 22.0061 15.9228 20.8154 18.0456 18.8923L15.3601 15.9279C13.9329 17.2208 12.0602 18.0061 10.0059 18.0061V22.0061ZM15.2886 18.8243L21.8566 25.3923L24.6851 22.5639L18.1171 15.9959L15.2886 18.8243ZM24.6841 25.3933L25.3921 24.6863L22.5656 21.8559L21.8576 22.5629L24.6841 25.3933ZM3.00586 10.0061C3.00586 6.14767 6.14743 3.0061 10.0059 3.0061V-0.993896C3.93829 -0.993896 -0.994141 3.93853 -0.994141 10.0061H3.00586ZM10.0059 3.0061C13.8641 3.0061 17.0059 6.14853 17.0059 10.0061H21.0059C21.0059 3.93968 16.0736 -0.993896 10.0059 -0.993896V3.0061ZM17.0059 10.0061C17.0059 13.8637 13.8641 17.0061 10.0059 17.0061V21.0061C16.0736 21.0061 21.0059 16.0725 21.0059 10.0061H17.0059ZM10.0059 17.0061C6.14757 17.0061 3.00586 13.8637 3.00586 10.0061H-0.994141C-0.994141 16.0725 3.93815 21.0061 10.0059 21.0061V17.0061Z" fill="#595959" mask="url(#path-1-inside-1_850_2459)"/>
<g clip-path="url(#clip1_850_2459)">
<path d="M13.125 6.66667H12.2792C12.175 5.72917 11.3792 5 10.4167 5H9.375C8.4125 5 7.61667 5.72917 7.5125 6.66667H6.875C5.84167 6.66667 5 7.50833 5 8.54167V13.125C5 14.1583 5.84167 15 6.875 15H13.125C14.1583 15 15 14.1583 15 13.125V8.54167C15 7.50833 14.1583 6.66667 13.125 6.66667ZM9.375 5.41667H10.4167C11.15 5.41667 11.7583 5.9625 11.8583 6.66667H7.93333C8.03333 5.9625 8.64167 5.41667 9.375 5.41667ZM14.5833 13.125C14.5833 13.9292 13.9292 14.5833 13.125 14.5833H6.875C6.07083 14.5833 5.41667 13.9292 5.41667 13.125V8.54167C5.41667 7.7375 6.07083 7.08333 6.875 7.08333H13.125C13.9292 7.08333 14.5833 7.7375 14.5833 8.54167V13.125Z" fill="#595959"/>
</g>
</g>
<defs>
<clipPath id="clip0_850_2459">
<rect width="24" height="24" fill="white"/>
</clipPath>
<clipPath id="clip1_850_2459">
<rect width="10" height="10" fill="white" transform="translate(5 5)"/>
</clipPath>
</defs>
</svg>
