<svg width="31" height="31" viewBox="0 0 31 31" fill="none" xmlns="http://www.w3.org/2000/svg">
<rect x="1.30078" y="1.24292" width="28.8286" height="28.8286" rx="14.4143" fill="#337CC7"/>
<rect x="1.30078" y="1.24292" width="28.8286" height="28.8286" rx="14.4143" stroke="white"/>
<path fill-rule="evenodd" clip-rule="evenodd" d="M16.1283 13.0057V14.4143C16.4196 13.9595 16.8259 13.5897 17.306 13.3423C17.7862 13.095 18.3231 12.9789 18.8626 13.0057C21.7626 13.0057 22.3426 14.8286 22.3426 17.1486V21.8715H19.6912V17.7286C19.6912 16.6515 19.5255 15.4086 17.9512 15.4086C16.3769 15.4086 16.1283 16.4857 16.1283 17.5629V21.8715H13.4769V13.0057H16.1283ZM11.7369 10.7686C11.7434 10.9745 11.702 11.179 11.6157 11.366C11.5295 11.5531 11.4008 11.7174 11.24 11.8461C11.0792 11.9747 10.8906 12.0642 10.6892 12.1073C10.4878 12.1503 10.2791 12.1459 10.0797 12.0943C9.89772 12.0404 9.72942 11.9479 9.58622 11.8233C9.44301 11.6986 9.32825 11.5447 9.24969 11.3719C9.17113 11.199 9.13061 11.0114 9.13086 10.8215C9.13112 10.6317 9.17214 10.4441 9.25117 10.2715C9.34273 10.1009 9.47055 9.95242 9.62564 9.83652C9.78072 9.72063 9.95931 9.64011 10.1488 9.60062C10.3384 9.56113 10.5343 9.56364 10.7227 9.60796C10.9112 9.65229 11.0877 9.73735 11.2397 9.85718C11.4883 10.1057 11.654 10.4372 11.654 10.7686H11.7369Z" fill="white"/>
<path d="M11.7374 13.0059H9.08594V21.8716H11.7374V13.0059Z" fill="white"/>
</svg>
