<svg width="25" height="25" viewBox="0 0 25 25" fill="none" xmlns="http://www.w3.org/2000/svg">
<path d="M22.0602 1.16219H3.00261C2.5702 1.15779 2.15372 1.32511 1.84453 1.62742C1.53534 1.92974 1.35871 2.34237 1.35339 2.77476V21.9093C1.35967 22.3411 1.53672 22.7528 1.84581 23.0543C2.15489 23.3558 2.57083 23.5226 3.00261 23.5182H22.0602C22.4926 23.5216 22.9088 23.3538 23.2179 23.0513C23.5269 22.7488 23.7036 22.3362 23.7094 21.9038V2.76926C23.7017 2.33814 23.5241 1.92748 23.2153 1.62655C22.9065 1.32562 22.4914 1.15875 22.0602 1.16219Z" fill="#0076B2"/>
<path d="M4.6628 9.54216H7.98139V20.2199H4.6628V9.54216ZM6.32301 4.22803C6.70364 4.22803 7.07571 4.34092 7.39216 4.55242C7.70862 4.76392 7.95523 5.06453 8.10081 5.41622C8.24638 5.76791 8.28438 6.15487 8.20999 6.52816C8.1356 6.90144 7.95216 7.24428 7.68289 7.51329C7.41362 7.78231 7.07061 7.96541 6.69726 8.03945C6.3239 8.11348 5.93697 8.07512 5.58542 7.92921C5.23388 7.7833 4.9335 7.5364 4.7223 7.21974C4.5111 6.90309 4.39856 6.5309 4.39893 6.15028C4.39941 5.6403 4.60234 5.15137 4.96312 4.79093C5.32391 4.43049 5.81303 4.22803 6.32301 4.22803ZM10.0631 9.54216H13.2442V11.0081H13.2882C13.7316 10.1689 14.8128 9.28379 16.4272 9.28379C19.7879 9.27646 20.411 11.4882 20.411 14.356V20.2199H17.0924V15.0249C17.0924 13.788 17.0704 12.1956 15.368 12.1956C13.6657 12.1956 13.3762 13.5443 13.3762 14.9443V20.2199H10.0631V9.54216Z" fill="white"/>
</svg>
