<svg width="28" height="28" viewBox="0 0 28 28" fill="none" xmlns="http://www.w3.org/2000/svg">
<rect width="28" height="28" rx="8" fill="white"/>
<rect x="0.5" y="0.5" width="27" height="27" rx="7.5" stroke="black" stroke-opacity="0.15"/>
<path d="M11.8044 11.1381C12.0648 10.8777 12.0648 10.4556 11.8044 10.1953C11.5441 9.93491 11.122 9.93491 10.8616 10.1953L7.52827 13.5286C7.26792 13.7889 7.26792 14.2111 7.52827 14.4714L10.8616 17.8047C11.122 18.0651 11.5441 18.0651 11.8044 17.8047C12.0648 17.5444 12.0648 17.1223 11.8044 16.8619L8.94248 14L11.8044 11.1381Z" fill="black"/>
<path d="M17.1377 10.1953C16.8774 9.93491 16.4553 9.93491 16.1949 10.1953C15.9346 10.4556 15.9346 10.8777 16.1949 11.1381L19.0569 14L16.1949 16.8619C15.9346 17.1223 15.9346 17.5444 16.1949 17.8047C16.4553 18.0651 16.8774 18.0651 17.1377 17.8047L20.4711 14.4714C20.7314 14.2111 20.7314 13.7889 20.4711 13.5286L17.1377 10.1953Z" fill="black"/>
</svg>
