<svg width="20" height="20" viewBox="0 0 20 20" fill="none" xmlns="http://www.w3.org/2000/svg">
<path d="M1.44172 1.47508L2.37505 0.658415C3.22505 -0.191585 4.66672 -0.233252 5.58338 0.700081L7.14172 2.74175C8.01672 3.61675 8.01672 5.04175 7.14172 5.90842L5.90005 7.18341C7.25005 10.3501 9.74172 12.8501 12.8084 14.1001L14.0834 12.8584C14.5084 12.4334 15.0667 12.2001 15.6667 12.2001C16.2667 12.2001 16.8251 12.4334 17.2084 12.8251L19.3251 14.4584C20.2001 15.3334 20.2001 16.7584 19.3417 17.6084L18.4917 18.5834C17.5751 19.5001 16.3417 20.0084 15 20.0084C8.54172 20.0084 -0.0166187 11.4417 -0.0166187 4.99175C-0.0166187 3.65841 0.491714 2.41675 1.42505 1.48341L1.44172 1.47508ZM15.0167 19.1667C16.1334 19.1667 17.1584 18.7501 17.9001 18.0084L18.7501 17.0251C19.3001 16.4751 19.3001 15.5834 18.7917 15.0667L16.6751 13.4334C16.4084 13.1667 16.0584 13.0167 15.675 13.0167C15.2917 13.0167 14.9417 13.1667 14.675 13.4334L13.2001 14.8751C13.0834 14.9917 12.9167 15.0251 12.7584 14.9667C9.28338 13.6417 6.45838 10.8167 5.01672 7.23342C4.95838 7.08342 4.99171 6.90842 5.10838 6.78342L6.55005 5.30841C7.10005 4.75841 7.10005 3.86675 6.51672 3.27508L4.95838 1.23341C4.40838 0.683415 3.51672 0.683415 2.94172 1.25008L2.00838 2.06675C1.25005 2.82508 0.833382 3.85008 0.833382 4.96675C0.833382 10.9334 9.05005 19.1501 15.0167 19.1501V19.1667Z" fill="#595959"/>
</svg>
