<svg width="18" height="18" viewBox="0 0 18 18" fill="none" xmlns="http://www.w3.org/2000/svg">
<path d="M2.14551 9.00005C2.14551 8.78985 2.31611 8.61925 2.52632 8.61925H8.61925V2.52632C8.61925 2.31611 8.78985 2.14551 9.00005 2.14551C9.21026 2.14551 9.38086 2.31611 9.38086 2.52632V8.61925H15.4738C15.684 8.61925 15.8546 8.78985 15.8546 9.00005C15.8546 9.21026 15.684 9.38086 15.4738 9.38086H9.38086V15.4738C9.38086 15.684 9.21026 15.8546 9.00005 15.8546C8.78985 15.8546 8.61925 15.684 8.61925 15.4738V9.38086H2.52632C2.31611 9.38086 2.14551 9.21026 2.14551 9.00005Z" fill="white"/>
</svg>
