<svg width="16" height="20" viewBox="0 0 16 20" fill="none" xmlns="http://www.w3.org/2000/svg">
<path d="M11.2917 1.66667C11.0983 0.716667 10.2567 0 9.25 0H6.75C5.74333 0 4.9025 0.716667 4.70833 1.66667H0.5V17.9167C0.5 19.065 1.435 20 2.58333 20H13.4167C14.565 20 15.5 19.065 15.5 17.9167V1.66667H11.2917ZM14.6667 17.9167C14.6667 18.6058 14.1058 19.1667 13.4167 19.1667H2.58333C1.89417 19.1667 1.33333 18.6058 1.33333 17.9167V2.5H5.5V2.08333C5.5 1.39417 6.06083 0.833333 6.75 0.833333H9.25C9.93917 0.833333 10.5 1.39417 10.5 2.08333V2.5H14.6667V17.9167ZM10.0833 11.6667C11.2317 11.6667 12.1667 12.6017 12.1667 13.75V15.8333H11.3333V13.75C11.3333 13.0608 10.7725 12.5 10.0833 12.5H5.91667C5.2275 12.5 4.66667 13.0608 4.66667 13.75V15.8333H3.83333V13.75C3.83333 12.6017 4.76833 11.6667 5.91667 11.6667H10.0833ZM8 10.8333C9.37833 10.8333 10.5 9.71167 10.5 8.33333C10.5 6.955 9.37833 5.83333 8 5.83333C6.62167 5.83333 5.5 6.955 5.5 8.33333C5.5 9.71167 6.62167 10.8333 8 10.8333ZM8 6.66667C8.91917 6.66667 9.66667 7.41417 9.66667 8.33333C9.66667 9.2525 8.91917 10 8 10C7.08083 10 6.33333 9.2525 6.33333 8.33333C6.33333 7.41417 7.08083 6.66667 8 6.66667Z" fill="black"/>
</svg>
