<svg width="14" height="14" viewBox="0 0 14 14" fill="none" xmlns="http://www.w3.org/2000/svg">
<g clip-path="url(#clip0_907_533)">
<path d="M13.8435 13.4306L10.1562 9.74333C11.0937 8.70792 11.6706 7.34 11.6706 5.83617C11.6706 2.62025 9.05374 0.00341797 5.83724 0.00341797C2.62074 0.00341797 0.00390625 2.62025 0.00390625 5.83675C0.00390625 9.05325 2.62074 11.6701 5.83724 11.6701C7.34049 11.6701 8.70841 11.0938 9.74382 10.1563L13.4311 13.8436C13.4882 13.9008 13.5629 13.9288 13.6376 13.9288C13.7122 13.9288 13.7869 13.9002 13.8441 13.8436C13.9578 13.7298 13.9578 13.5449 13.8441 13.4312L13.8435 13.4306ZM0.58724 5.83675C0.58724 2.94167 2.94216 0.586751 5.83724 0.586751C8.73232 0.586751 11.0872 2.94225 11.0872 5.83675C11.0872 8.73125 8.73232 11.0868 5.83724 11.0868C2.94216 11.0868 0.58724 8.73125 0.58724 5.83675Z" fill="#A8A7A7"/>
</g>
<defs>
<clipPath id="clip0_907_533">
<rect width="14" height="14" fill="white"/>
</clipPath>
</defs>
</svg>
