<svg width="20" height="20" viewBox="0 0 20 20" fill="none" xmlns="http://www.w3.org/2000/svg">
<path d="M17.4938 10C17.4938 9.42417 17.4238 8.84167 17.2855 8.265L19.7221 6.88583L17.6688 3.25917L15.2296 4.64C14.3438 3.77333 13.2646 3.14417 12.0771 2.80083V0H7.91048V2.80083C6.72298 3.14417 5.64382 3.77333 4.75715 4.64L2.31798 3.25917L0.265482 6.88583L2.70132 8.265C2.56298 8.84167 2.49298 9.42417 2.49298 10C2.49298 10.5758 2.56298 11.1592 2.70132 11.735L0.264648 13.1142L2.31715 16.74L4.75632 15.3592C5.64298 16.2267 6.72215 16.8558 7.90965 17.1992V20H12.0763V17.1992C13.2638 16.8558 14.343 16.2267 15.2296 15.3592L17.6688 16.74L19.7221 13.1142L17.2855 11.735C17.4238 11.1583 17.4938 10.5758 17.4938 10ZM18.5863 13.4283L17.3538 15.6033L15.0763 14.3142L14.8521 14.5533C13.9613 15.5042 12.823 16.1675 11.5621 16.4725L11.2438 16.55V19.1667H8.74382V16.55L8.42548 16.4725C7.16382 16.1675 6.02632 15.5042 5.13465 14.5533L4.91048 14.3142L2.63298 15.6033L1.40132 13.4283L3.67632 12.14L3.58631 11.825C3.41381 11.22 3.32632 10.6067 3.32632 10C3.32632 9.39333 3.41381 8.78083 3.58631 8.175L3.67548 7.86L1.40048 6.57167L2.63298 4.39583L4.91048 5.68583L5.13465 5.44667C6.02548 4.49583 7.16382 3.8325 8.42548 3.5275L8.74382 3.45V0.833333H11.2438V3.45L11.5621 3.5275C12.8238 3.8325 13.9613 4.49583 14.8521 5.44667L15.0763 5.68583L17.3538 4.39583L18.5855 6.57167L16.3105 7.86L16.3996 8.175C16.5721 8.78167 16.6596 9.395 16.6596 10C16.6596 10.605 16.5721 11.2192 16.3996 11.825L16.3105 12.14L18.5855 13.4283H18.5863ZM7.08298 10.0592V5.83333H6.24965V10.0592C5.53298 10.2458 4.99965 10.8925 4.99965 11.6667C4.99965 12.4408 5.53298 13.0875 6.24965 13.2742V14.1667H7.08298V13.2742C7.79965 13.0875 8.33298 12.4408 8.33298 11.6667C8.33298 10.8925 7.79965 10.2458 7.08298 10.0592ZM6.66632 12.5C6.20715 12.5 5.83298 12.1267 5.83298 11.6667C5.83298 11.2067 6.20715 10.8333 6.66632 10.8333C7.12548 10.8333 7.49965 11.2067 7.49965 11.6667C7.49965 12.1267 7.12548 12.5 6.66632 12.5ZM13.7496 10.0592V5.83333H12.9163V10.0592C12.1996 10.2458 11.6663 10.8925 11.6663 11.6667C11.6663 12.4408 12.1996 13.0875 12.9163 13.2742V14.1667H13.7496V13.2742C14.4663 13.0875 14.9996 12.4408 14.9996 11.6667C14.9996 10.8925 14.4663 10.2458 13.7496 10.0592ZM13.333 12.5C12.8738 12.5 12.4996 12.1267 12.4996 11.6667C12.4996 11.2067 12.8738 10.8333 13.333 10.8333C13.7921 10.8333 14.1663 11.2067 14.1663 11.6667C14.1663 12.1267 13.7921 12.5 13.333 12.5ZM10.4163 6.72583V5.83333H9.58298V6.72583C8.86631 6.9125 8.33298 7.55917 8.33298 8.33333C8.33298 9.1075 8.86631 9.75417 9.58298 9.94083V14.1667H10.4163V9.94083C11.133 9.75417 11.6663 9.1075 11.6663 8.33333C11.6663 7.55917 11.133 6.9125 10.4163 6.72583ZM9.99965 9.16667C9.54048 9.16667 9.16632 8.79333 9.16632 8.33333C9.16632 7.87333 9.54048 7.5 9.99965 7.5C10.4588 7.5 10.833 7.87333 10.833 8.33333C10.833 8.79333 10.4588 9.16667 9.99965 9.16667Z" fill="#595959"/>
</svg>
