<svg width="18" height="18" viewBox="0 0 18 18" fill="none" xmlns="http://www.w3.org/2000/svg">
<rect x="0.5" y="0.5" width="17" height="17" rx="8.5" stroke="#E0E0E7"/>
<g clip-path="url(#clip0_1118_87026)">
<path fill-rule="evenodd" clip-rule="evenodd" d="M9 17C13.4183 17 17 13.4183 17 9C17 4.58172 13.4183 1 9 1C4.58172 1 1 4.58172 1 9C1 13.4183 4.58172 17 9 17Z" fill="white"/>
<path fill-rule="evenodd" clip-rule="evenodd" d="M9 13C11.2091 13 13 11.2091 13 9C13 6.79086 11.2091 5 9 5C6.79086 5 5 6.79086 5 9C5 11.2091 6.79086 13 9 13Z" fill="#E0E0E7"/>
</g>
<defs>
<clipPath id="clip0_1118_87026">
<rect width="16" height="16" fill="white" transform="translate(1 1)"/>
</clipPath>
</defs>
</svg>
