<svg width="16" height="16" viewBox="0 0 16 16" fill="none" xmlns="http://www.w3.org/2000/svg">
<path fill-rule="evenodd" clip-rule="evenodd" d="M8 16C12.4183 16 16 12.4183 16 8C16 3.58172 12.4183 0 8 0C3.58172 0 0 3.58172 0 8C0 12.4183 3.58172 16 8 16Z" fill="#1264FD"/>
<path d="M5.99528 11.5649C5.89328 11.5649 5.79548 11.5221 5.72348 11.4455L3.07148 8.62192C2.92148 8.46222 2.92148 8.2035 3.07148 8.0438C3.22148 7.88409 3.46448 7.88409 3.61448 8.0438L5.99528 10.578L11.9995 4.18472C12.1495 4.02502 12.3925 4.02502 12.5425 4.18472C12.6925 4.34442 12.6925 4.60314 12.5425 4.76285L6.26648 11.4448C6.19448 11.5221 6.09728 11.5649 5.99528 11.5649Z" fill="white"/>
</svg>
