<svg width="20" height="20" viewBox="0 0 20 20" fill="none" xmlns="http://www.w3.org/2000/svg">
<path d="M10.2817 19.2758C10.2267 19.2242 8.05583 17.1458 6.7675 14.1667H8.52833L8.24333 13.3333H6.44167C6.07667 12.295 5.83333 11.1725 5.83333 10C5.83333 8.8275 6.07667 7.70583 6.44333 6.66667H13.5483C13.7525 7.2475 13.9217 7.85167 14.0275 8.48L14.9175 8.78417C14.8275 8.0475 14.6542 7.34167 14.4367 6.66667H18.5308C18.9367 7.70167 19.1675 8.82333 19.1675 10C19.1675 10.0792 19.1583 10.1558 19.1558 10.2342L19.9742 10.5142C19.9833 10.3425 20 10.1733 20 10C20 4.48583 15.5142 0 10 0C4.48583 0 0 4.48583 0 10C0 15.5142 4.48583 20 10 20C10.1742 20 10.3433 19.9825 10.515 19.9742L10.285 19.2758H10.2808H10.2817ZM6.76917 5.83333C7.79333 3.46833 9.365 1.67583 10 1.01C10.6342 1.67667 12.2008 3.47083 13.2217 5.83333H6.76917ZM18.155 5.83333H14.1367C13.25 3.6125 11.8808 1.85 11.0325 0.895833C14.1442 1.24667 16.7842 3.16167 18.155 5.83333ZM8.96667 0.895833C8.1175 1.84917 6.74667 3.61 5.8575 5.83333H1.845C3.21583 3.16167 5.855 1.24667 8.96667 0.895833ZM1.47 6.66667H5.5575C5.22083 7.70667 5 8.82417 5 10C5 11.1758 5.22083 12.2933 5.5575 13.3333H1.47C1.06417 12.2983 0.833333 11.1767 0.833333 10C0.833333 8.82333 1.06417 7.70167 1.47 6.66667ZM1.845 14.1667H5.85667C6.74583 16.3908 8.11667 18.1508 8.96667 19.1042C5.855 18.7533 3.21583 16.8383 1.845 14.1667ZM12.2792 19.9825L14.3858 14.3858L19.9825 12.2792L8.27333 8.27333L12.2792 19.9825ZM13.7392 13.74L12.3167 17.5183L9.61167 9.6125L17.5175 12.3167L13.7392 13.74Z" fill="#595959"/>
</svg>
