<svg width="19" height="18" viewBox="0 0 19 18" fill="none" xmlns="http://www.w3.org/2000/svg">
<path d="M15.8559 4.40466H6.58984C6.44423 4.40466 6.32617 4.28661 6.32617 4.14099C6.32617 3.99537 6.44423 3.87732 6.58984 3.87732H15.8559C16.0016 3.87732 16.1196 3.99537 16.1196 4.14099C16.1196 4.28661 16.0016 4.40466 15.8559 4.40466Z" fill="#8FA8D7"/>
<path d="M15.8552 7.20178H3.64648C3.50087 7.20178 3.38281 7.08373 3.38281 6.93811C3.38281 6.79249 3.50087 6.67444 3.64648 6.67444H15.8552C16.0008 6.67444 16.1189 6.79249 16.1189 6.93811C16.1189 7.08373 16.0008 7.20178 15.8552 7.20178Z" fill="#8FA8D7"/>
<path d="M15.8552 9.9989H3.64648C3.50087 9.9989 3.38281 9.88085 3.38281 9.73523C3.38281 9.58961 3.50087 9.47156 3.64648 9.47156H15.8552C16.0008 9.47156 16.1189 9.58961 16.1189 9.73523C16.1189 9.88085 16.0008 9.9989 15.8552 9.9989Z" fill="#8FA8D7"/>
<path d="M18.4863 9.3821C18.3407 9.3821 18.2227 9.26404 18.2227 9.11842V2.51056C18.2227 1.52728 17.4227 0.727295 16.4394 0.727295H3.06061C2.07732 0.727295 1.27734 1.52728 1.27734 2.51056V3.52422C1.27734 3.66984 1.15929 3.78789 1.01367 3.78789C0.868055 3.78789 0.75 3.66984 0.75 3.52422V2.51056C0.75 1.2365 1.78655 0.199951 3.06061 0.199951H16.4394C17.7135 0.199951 18.75 1.2365 18.75 2.51056V9.11842C18.75 9.26404 18.6319 9.3821 18.4863 9.3821Z" fill="#8FA8D7"/>
<path d="M3.43421 17.7546C3.22493 17.6653 3.08972 17.4606 3.08972 17.2331V14.3888C3.08972 14.3728 3.07664 14.3597 3.06061 14.3597C1.78651 14.3597 0.75 13.3232 0.75 12.0491V4.75781C0.75 4.6122 0.868055 4.49414 1.01367 4.49414C1.15929 4.49414 1.27734 4.6122 1.27734 4.75781V12.0491C1.27734 13.0324 2.07729 13.8324 3.06061 13.8324C3.36745 13.8324 3.61706 14.082 3.61706 14.3888V17.2331C3.61706 17.2685 3.65841 17.2862 3.68393 17.2617L6.98784 14.093C7.16303 13.9249 7.39316 13.8324 7.63591 13.8324H16.4394C17.4227 13.8324 18.2227 13.0325 18.2227 12.0491V10.3521C18.2227 10.2064 18.3407 10.0884 18.4864 10.0884C18.632 10.0884 18.75 10.2064 18.75 10.3521V12.0491C18.75 13.3232 17.7135 14.3598 16.4394 14.3598H7.63588C7.52985 14.3598 7.42934 14.4002 7.35284 14.4736L4.04896 17.6423C3.88425 17.8002 3.64276 17.8435 3.43421 17.7546Z" fill="#8FA8D7"/>
</svg>
