<svg width="16" height="16" viewBox="0 0 16 16" fill="none" xmlns="http://www.w3.org/2000/svg">
<rect x="0.268199" y="0.268199" width="15.4636" height="15.4636" rx="4.02299" fill="#337CC7"/>
<rect x="0.268199" y="0.268199" width="15.4636" height="15.4636" rx="4.02299" stroke="white" stroke-width="0.536399"/>
<path fill-rule="evenodd" clip-rule="evenodd" d="M8.22412 6.57851V7.33407C8.38037 7.09009 8.5983 6.89173 8.85585 6.75905C9.1134 6.62637 9.40143 6.56409 9.69079 6.57851C11.2463 6.57851 11.5575 7.55629 11.5575 8.80074V11.3341H10.1352V9.11185C10.1352 8.53407 10.0463 7.8674 9.2019 7.8674C8.35746 7.8674 8.22412 8.44518 8.22412 9.02296V11.3341H6.8019V6.57851H8.22412ZM5.86857 5.37851C5.87209 5.48893 5.84984 5.59865 5.80358 5.69897C5.75731 5.7993 5.68831 5.88746 5.60205 5.95647C5.51578 6.02548 5.41462 6.07345 5.30659 6.09656C5.19856 6.11967 5.08663 6.1173 4.97968 6.08962C4.88205 6.06068 4.79177 6.0111 4.71496 5.94424C4.63814 5.87739 4.57658 5.79481 4.53444 5.70211C4.4923 5.6094 4.47057 5.50872 4.4707 5.40689C4.47084 5.30506 4.49285 5.20444 4.53524 5.11185C4.58435 5.02035 4.65291 4.94071 4.7361 4.87855C4.81929 4.81638 4.91508 4.77319 5.01675 4.75201C5.11842 4.73083 5.22349 4.73217 5.32458 4.75595C5.42568 4.77972 5.52033 4.82535 5.6019 4.88962C5.73524 5.02296 5.82412 5.20073 5.82412 5.37851H5.86857Z" fill="white"/>
<path d="M5.86753 6.57861H4.44531V11.3342H5.86753V6.57861Z" fill="white"/>
</svg>
