<svg width="14" height="14" viewBox="0 0 14 14" fill="none" xmlns="http://www.w3.org/2000/svg">
<path d="M11.748 3.42578H4.54102C4.42776 3.42578 4.33594 3.33396 4.33594 3.2207C4.33594 3.10745 4.42776 3.01562 4.54102 3.01562H11.748C11.8612 3.01562 11.9531 3.10745 11.9531 3.2207C11.9531 3.33396 11.8612 3.42578 11.748 3.42578Z" fill="#1D1D1D"/>
<path d="M11.7476 5.60132H2.25195C2.1387 5.60132 2.04688 5.5095 2.04688 5.39624C2.04688 5.28298 2.1387 5.19116 2.25195 5.19116H11.7476C11.8609 5.19116 11.9527 5.28298 11.9527 5.39624C11.9527 5.5095 11.8609 5.60132 11.7476 5.60132Z" fill="#1D1D1D"/>
<path d="M11.7476 7.77686H2.25195C2.1387 7.77686 2.04688 7.68504 2.04688 7.57178C2.04688 7.45852 2.1387 7.3667 2.25195 7.3667H11.7476C11.8609 7.3667 11.9527 7.45852 11.9527 7.57178C11.9527 7.68504 11.8609 7.77686 11.7476 7.77686Z" fill="#1D1D1D"/>
<path d="M13.7949 7.29719C13.6817 7.29719 13.5898 7.20537 13.5898 7.09211V1.95266C13.5898 1.18788 12.9677 0.565674 12.2029 0.565674H1.79714C1.03236 0.565674 0.410156 1.18788 0.410156 1.95266V2.74106C0.410156 2.85432 0.318336 2.94614 0.205078 2.94614C0.0918203 2.94614 0 2.85432 0 2.74106V1.95266C0 0.961721 0.806203 0.155518 1.79714 0.155518H12.2029C13.1938 0.155518 14 0.961721 14 1.95266V7.09211C14 7.20537 13.9082 7.29719 13.7949 7.29719Z" fill="#1D1D1D"/>
<path d="M2.08772 13.809C1.92495 13.7396 1.81978 13.5804 1.81978 13.4035V11.1912C1.81978 11.1787 1.80961 11.1686 1.79714 11.1686C0.806176 11.1686 0 10.3624 0 9.37145V3.70044C0 3.58718 0.0918203 3.49536 0.205078 3.49536C0.318336 3.49536 0.410156 3.58718 0.410156 3.70044V9.37145C0.410156 10.1362 1.03234 10.7584 1.79714 10.7584C2.0358 10.7584 2.22994 10.9526 2.22994 11.1912V13.4035C2.22994 13.431 2.26209 13.4447 2.28195 13.4257L4.85166 10.9611C4.98791 10.8304 5.1669 10.7585 5.35571 10.7585H12.2029C12.9677 10.7585 13.5899 10.1363 13.5899 9.37148V8.05151C13.5899 7.93826 13.6817 7.84644 13.7949 7.84644C13.9082 7.84644 14 7.93826 14 8.05151V9.37148C14 10.3624 13.1939 11.1686 12.2029 11.1686H5.35568C5.27321 11.1686 5.19504 11.2 5.13554 11.2571L2.56586 13.7217C2.43775 13.8445 2.24993 13.8782 2.08772 13.809Z" fill="#1D1D1D"/>
</svg>
