<svg width="20" height="20" viewBox="0 0 20 20" fill="none" xmlns="http://www.w3.org/2000/svg">
<path d="M17.7843 7.36083C18.0314 7.23833 18.2578 7.09833 18.4706 6.935V16H2V5.79167C2 4.98667 2.76863 4.33333 3.71569 4.33333H11.6078V4.91667H3.71569C3.35196 4.91667 3.02941 5.08 2.84412 5.325L8.52647 10.1492C9.43235 10.9192 11.0176 10.9192 11.9235 10.1492L14.7304 7.7225C15.0049 7.78083 15.2863 7.81583 15.5745 7.82167L12.4039 10.5575C11.8206 11.0533 11.0451 11.3275 10.2216 11.3275C9.39804 11.3275 8.62255 11.0533 8.03922 10.5575L2.68627 6.01333V15.4167H17.7843V7.36083ZM12.9804 4.33333C12.9804 3.04417 14.2088 2 15.7255 2C17.2422 2 18.4706 3.04417 18.4706 4.33333C18.4706 5.6225 17.2422 6.66667 15.7255 6.66667C14.2088 6.66667 12.9804 5.6225 12.9804 4.33333ZM13.6667 4.33333C13.6667 5.29583 14.5931 6.08333 15.7255 6.08333C16.8578 6.08333 17.7843 5.29583 17.7843 4.33333C17.7843 3.37083 16.8578 2.58333 15.7255 2.58333C14.5931 2.58333 13.6667 3.37083 13.6667 4.33333Z" fill="#BABBE0"/>
</svg>
