<svg width="18" height="18" viewBox="0 0 18 18" fill="none" xmlns="http://www.w3.org/2000/svg">
<path d="M8.57087 8.57143C10.9344 8.57143 12.8566 6.64929 12.8566 4.28571C12.8566 1.92214 10.9344 0 8.57087 0C6.2073 0 4.28516 1.92214 4.28516 4.28571C4.28516 6.64929 6.2073 8.57143 8.57087 8.57143ZM8.57087 0.714286C10.5402 0.714286 12.1423 2.31643 12.1423 4.28571C12.1423 6.255 10.5402 7.85714 8.57087 7.85714C6.60158 7.85714 4.99944 6.255 4.99944 4.28571C4.99944 2.31643 6.60158 0.714286 8.57087 0.714286Z" fill="#595959"/>
<path d="M8.14286 10.2856C7.90629 10.2856 7.71429 10.0936 7.71429 9.85704C7.71429 9.62047 7.90629 9.42847 8.14286 9.42847H8.57143C13.0611 9.42847 16.7143 13.0816 16.7143 17.5713C16.7143 17.8079 16.5223 17.9999 16.2857 17.9999C16.0491 17.9999 15.8571 17.8079 15.8571 17.5713C15.8571 13.5539 12.5889 10.2856 8.57143 10.2856H8.14286Z" fill="#595959"/>
<path d="M8.57143 10.2856C8.808 10.2856 9 10.0936 9 9.85704C9 9.62047 8.808 9.42847 8.57143 9.42847H8.14286C3.65314 9.42847 0 13.0816 0 17.5713C0 17.8079 0.192 17.9999 0.428571 17.9999C0.665143 17.9999 0.857143 17.8079 0.857143 17.5713C0.857143 13.5539 4.12543 10.2856 8.14286 10.2856H8.57143Z" fill="#595959"/>
</svg>
