<svg width="18" height="18" viewBox="0 0 18 18" fill="none" xmlns="http://www.w3.org/2000/svg">
<path d="M15.1426 12.7882V10.875C15.1426 9.8415 14.3419 9 13.3569 9H9.07115V6.71175C10.674 6.52275 11.9283 5.1075 11.9283 3.375C11.9283 1.51425 10.4861 0 8.71401 0C6.94186 0 5.49972 1.51425 5.49972 3.375C5.49972 5.1075 6.75401 6.52275 8.35686 6.71175V9H4.07115C3.08615 9 2.28544 9.8415 2.28544 10.875V12.7882C1.07686 12.972 0.142578 14.0565 0.142578 15.375C0.142578 16.8225 1.26401 18 2.64258 18C4.02115 18 5.14258 16.8225 5.14258 15.375C5.14258 14.0565 4.20829 12.972 2.99972 12.7882V10.875C2.99972 10.2548 3.48044 9.75 4.07115 9.75H8.35686V12.7882C7.14829 12.972 6.21401 14.0565 6.21401 15.375C6.21401 16.8225 7.33543 18 8.71401 18C10.0926 18 11.214 16.8225 11.214 15.375C11.214 14.0565 10.2797 12.972 9.07115 12.7882V9.75H13.3569C13.9476 9.75 14.4283 10.2548 14.4283 10.875V12.7882C13.2197 12.972 12.2854 14.0565 12.2854 15.375C12.2854 16.8225 13.4069 18 14.7854 18C16.164 18 17.2854 16.8225 17.2854 15.375C17.2854 14.0565 16.3511 12.972 15.1426 12.7882ZM6.21401 3.375C6.21401 1.9275 7.33543 0.75 8.71401 0.75C10.0926 0.75 11.214 1.9275 11.214 3.375C11.214 4.8225 10.0926 6 8.71401 6C7.33543 6 6.21401 4.8225 6.21401 3.375ZM4.42829 15.375C4.42829 16.4085 3.62758 17.25 2.64258 17.25C1.65758 17.25 0.856864 16.4085 0.856864 15.375C0.856864 14.3415 1.65758 13.5 2.64258 13.5C3.62758 13.5 4.42829 14.3415 4.42829 15.375ZM10.4997 15.375C10.4997 16.4085 9.69901 17.25 8.71401 17.25C7.72901 17.25 6.92829 16.4085 6.92829 15.375C6.92829 14.3415 7.72901 13.5 8.71401 13.5C9.69901 13.5 10.4997 14.3415 10.4997 15.375ZM14.7854 17.25C13.8004 17.25 12.9997 16.4085 12.9997 15.375C12.9997 14.3415 13.8004 13.5 14.7854 13.5C15.7704 13.5 16.5711 14.3415 16.5711 15.375C16.5711 16.4085 15.7704 17.25 14.7854 17.25Z" fill="#595959"/>
</svg>
