<svg width="17" height="18" viewBox="0 0 17 18" fill="none" xmlns="http://www.w3.org/2000/svg">
<path d="M2.85714 11.25C2.85714 10.4227 3.49786 9.75 4.28571 9.75H8.92857C9.12571 9.75 9.28571 9.918 9.28571 10.125C9.28571 10.332 9.12571 10.5 8.92857 10.5H4.28571C3.89214 10.5 3.57143 10.8368 3.57143 11.25V12.75C3.57143 13.1632 3.89214 13.5 4.28571 13.5H9.64286C9.84 13.5 10 13.668 10 13.875C10 14.082 9.84 14.25 9.64286 14.25H4.28571C3.49786 14.25 2.85714 13.5773 2.85714 12.75V11.25ZM3.21429 7.5H6.07143C6.26857 7.5 6.42857 7.332 6.42857 7.125C6.42857 6.918 6.26857 6.75 6.07143 6.75H3.21429C3.01714 6.75 2.85714 6.918 2.85714 7.125C2.85714 7.332 3.01714 7.5 3.21429 7.5ZM3.21429 4.5H6.07143C6.26857 4.5 6.42857 4.332 6.42857 4.125C6.42857 3.918 6.26857 3.75 6.07143 3.75H3.21429C3.01714 3.75 2.85714 3.918 2.85714 4.125C2.85714 4.332 3.01714 4.5 3.21429 4.5ZM11.4286 17.625C11.4286 17.832 11.2686 18 11.0714 18H3.21429C1.44214 18 0 16.4858 0 14.625V3.375C0 1.51425 1.44214 0 3.21429 0H7.15357C8.39286 0 9.55929 0.507 10.4371 1.428L12.9257 4.04175C13.5143 4.65975 13.935 5.4345 14.1414 6.282C14.1686 6.3945 14.145 6.51375 14.0771 6.60525C14.0093 6.69675 13.9057 6.75 13.795 6.75H9.64286C8.65786 6.75 7.85714 5.9085 7.85714 4.875V0.81525C7.62714 0.77175 7.39214 0.75 7.15357 0.75H3.21429C1.83571 0.75 0.714286 1.9275 0.714286 3.375V14.625C0.714286 16.0725 1.83571 17.25 3.21429 17.25H11.0714C11.2686 17.25 11.4286 17.418 11.4286 17.625ZM8.57143 4.875C8.57143 5.49525 9.05214 6 9.64286 6H13.3064C13.11 5.466 12.8086 4.97925 12.4207 4.572L9.93214 1.95825C9.53786 1.545 9.07572 1.23075 8.57214 1.026V4.875H8.57143ZM14.85 12.5858L12.4057 12.1733C11.8393 12.078 11.4286 11.571 11.4286 10.9695C11.4286 10.2975 11.9493 9.75 12.59 9.75H14.59C15.035 9.75 15.45 10.0013 15.6736 10.4062C15.7729 10.5863 15.9914 10.6462 16.1614 10.5435C16.3321 10.44 16.3907 10.2105 16.2921 10.0312C15.9421 9.39525 15.2907 9 14.5907 9H13.9293V7.875C13.9293 7.668 13.7693 7.5 13.5721 7.5C13.375 7.5 13.215 7.668 13.215 7.875V9H12.5907C11.5564 9 10.715 9.8835 10.715 10.9695C10.715 11.9415 11.3793 12.7598 12.2936 12.9142L14.7379 13.3267C15.3043 13.422 15.715 13.929 15.715 14.5305C15.715 15.2025 15.1943 15.75 14.5536 15.75H12.5536C12.1086 15.75 11.6936 15.4987 11.47 15.0938C11.3707 14.9137 11.15 14.853 10.9821 14.9565C10.8114 15.06 10.7529 15.2895 10.8514 15.4688C11.2014 16.1047 11.8529 16.5 12.5529 16.5H13.2143V17.625C13.2143 17.832 13.3743 18 13.5714 18C13.7686 18 13.9286 17.832 13.9286 17.625V16.5H14.5529C15.5871 16.5 16.4286 15.6165 16.4286 14.5305C16.4286 13.5585 15.7643 12.7402 14.85 12.5858Z" fill="#595959"/>
</svg>
