<svg width="16" height="16" viewBox="0 0 16 16" fill="none" xmlns="http://www.w3.org/2000/svg">
<g clip-path="url(#clip0_736_109948)">
<path d="M13.6664 8.66667C12.8637 8.66667 12.1544 9.07467 11.7344 9.69333L11.0584 9.318C11.2337 8.91333 11.3324 8.468 11.3324 8C11.3324 6.162 9.83702 4.66667 7.99902 4.66667C7.45102 4.66667 6.94169 4.812 6.48569 5.04733L5.86102 4.082C6.35036 3.654 6.66569 3.03267 6.66569 2.33333C6.66569 1.04667 5.61902 0 4.33236 0C3.04569 0 1.99902 1.04667 1.99902 2.33333C1.99902 3.62 3.04569 4.66667 4.33236 4.66667C4.67969 4.66667 5.00702 4.58533 5.30369 4.448L5.92636 5.41C5.16436 6.02133 4.66569 6.94867 4.66569 7.99933C4.66569 8.798 4.95969 9.522 5.42969 10.0967L3.72302 11.8033C3.33369 11.5113 2.85502 11.332 2.33236 11.332C1.04569 11.332 -0.000976562 12.3787 -0.000976562 13.6653C-0.000976562 14.952 1.04569 15.9987 2.33236 15.9987C3.61902 15.9987 4.66569 14.952 4.66569 13.6653C4.66569 13.142 4.48636 12.664 4.19436 12.2747L5.90102 10.568C6.47569 11.038 7.19969 11.332 7.99836 11.332C9.12969 11.332 10.1284 10.7627 10.731 9.898L11.451 10.298C11.3804 10.5207 11.3317 10.7527 11.3317 10.9987C11.3317 12.2853 12.3784 13.332 13.665 13.332C14.9517 13.332 15.9984 12.2853 15.9984 10.9987C15.9984 9.712 14.9517 8.66533 13.665 8.66533L13.6664 8.66667ZM2.66636 2.33333C2.66636 1.41467 3.41369 0.666667 4.33302 0.666667C5.25236 0.666667 5.99969 1.41467 5.99969 2.33333C5.99969 3.252 5.25236 4 4.33302 4C3.41369 4 2.66636 3.252 2.66636 2.33333ZM2.33302 15.3333C1.41369 15.3333 0.666357 14.5853 0.666357 13.6667C0.666357 12.748 1.41369 12 2.33302 12C3.25236 12 3.99969 12.748 3.99969 13.6667C3.99969 14.5853 3.25236 15.3333 2.33302 15.3333ZM7.99969 10.6667C6.52902 10.6667 5.33302 9.47067 5.33302 8C5.33302 6.52933 6.52902 5.33333 7.99969 5.33333C9.47036 5.33333 10.6664 6.52933 10.6664 8C10.6664 9.47067 9.47036 10.6667 7.99969 10.6667ZM13.6664 12.6667C12.747 12.6667 11.9997 11.9187 11.9997 11C11.9997 10.0813 12.747 9.33333 13.6664 9.33333C14.5857 9.33333 15.333 10.0813 15.333 11C15.333 11.9187 14.5857 12.6667 13.6664 12.6667Z" fill="#819ACB"/>
</g>
<defs>
<clipPath id="clip0_736_109948">
<rect width="16" height="16" fill="white"/>
</clipPath>
</defs>
</svg>
