<svg width="16" height="16" viewBox="0 0 16 16" fill="none" xmlns="http://www.w3.org/2000/svg">
<g clip-path="url(#clip0_736_109973)">
<path d="M13.426 3.91528H5.18945C5.06002 3.91528 4.95508 3.81035 4.95508 3.68091C4.95508 3.55147 5.06002 3.44653 5.18945 3.44653H13.426C13.5554 3.44653 13.6604 3.55147 13.6604 3.68091C13.6604 3.81035 13.5554 3.91528 13.426 3.91528Z" fill="#819ACB"/>
<path d="M13.4264 6.40161H2.57422C2.44478 6.40161 2.33984 6.29667 2.33984 6.16724C2.33984 6.0378 2.44478 5.93286 2.57422 5.93286H13.4264C13.5559 5.93286 13.6608 6.0378 13.6608 6.16724C13.6608 6.29667 13.5558 6.40161 13.4264 6.40161Z" fill="#819ACB"/>
<path d="M13.4264 8.88794H2.57422C2.44478 8.88794 2.33984 8.783 2.33984 8.65356C2.33984 8.52413 2.44478 8.41919 2.57422 8.41919H13.4264C13.5559 8.41919 13.6608 8.52413 13.6608 8.65356C13.6608 8.783 13.5558 8.88794 13.4264 8.88794Z" fill="#819ACB"/>
<path d="M15.7656 8.33964C15.6362 8.33964 15.5312 8.2347 15.5312 8.10527V2.23161C15.5312 1.35758 14.8202 0.646484 13.9461 0.646484H2.05387C1.17984 0.646484 0.46875 1.35758 0.46875 2.23161V3.13264C0.46875 3.26208 0.363813 3.36702 0.234375 3.36702C0.104937 3.36702 0 3.26208 0 3.13264V2.23161C0 1.09911 0.921375 0.177734 2.05387 0.177734H13.9461C15.0787 0.177734 16 1.09911 16 2.23161V8.10527C16 8.2347 15.8951 8.33964 15.7656 8.33964Z" fill="#819ACB"/>
<path d="M2.38597 15.7819C2.19994 15.7026 2.07975 15.5207 2.07975 15.3184V12.7902C2.07975 12.7759 2.06813 12.7643 2.05387 12.7643C0.921344 12.7643 0 11.8429 0 10.7104V4.22925C0 4.09981 0.104937 3.99487 0.234375 3.99487C0.363813 3.99487 0.46875 4.09981 0.46875 4.22925V10.7104C0.46875 11.5844 1.17981 12.2955 2.05387 12.2955C2.32662 12.2955 2.5485 12.5174 2.5485 12.7902V15.3184C2.5485 15.3498 2.58525 15.3656 2.60794 15.3438L5.54475 12.5272C5.70047 12.3778 5.90503 12.2956 6.12081 12.2956H13.9462C14.8202 12.2956 15.5313 11.5845 15.5313 10.7104V9.2019C15.5313 9.07247 15.6362 8.96753 15.7657 8.96753C15.8951 8.96753 16 9.07247 16 9.2019V10.7104C16 11.8429 15.0787 12.7643 13.9462 12.7643H6.12078C6.02653 12.7643 5.93719 12.8002 5.86919 12.8655L2.93241 15.6821C2.786 15.8225 2.57134 15.861 2.38597 15.7819Z" fill="#819ACB"/>
</g>
<defs>
<clipPath id="clip0_736_109973">
<rect width="16" height="16" fill="white"/>
</clipPath>
</defs>
</svg>
