<svg width="14" height="10" viewBox="0 0 14 10" fill="none" xmlns="http://www.w3.org/2000/svg">
<path d="M13.5249 4.27992C12.797 3.22183 11.8227 2.35664 10.6859 1.75892C9.54921 1.1612 8.28419 0.848877 6.99989 0.848877C5.7156 0.848877 4.45057 1.1612 3.31385 1.75892C2.17713 2.35664 1.20281 3.22183 0.474892 4.27992C0.328453 4.49146 0.25 4.74263 0.25 4.99992C0.25 5.2572 0.328453 5.50837 0.474892 5.71992C1.20281 6.778 2.17713 7.64319 3.31385 8.24091C4.45057 8.83863 5.7156 9.15095 6.99989 9.15095C8.28419 9.15095 9.54921 8.83863 10.6859 8.24091C11.8227 7.64319 12.797 6.778 13.5249 5.71992C13.6713 5.50837 13.7498 5.2572 13.7498 4.99992C13.7498 4.74263 13.6713 4.49146 13.5249 4.27992ZM13.1149 5.43492C12.4323 6.42598 11.5191 7.23628 10.4539 7.79607C9.38861 8.35585 8.20326 8.64834 6.99989 8.64834C5.79652 8.64834 4.61118 8.35585 3.54593 7.79607C2.48069 7.23628 1.56746 6.42598 0.884892 5.43492C0.797181 5.30681 0.750246 5.15517 0.750246 4.99992C0.750246 4.84466 0.797181 4.69303 0.884892 4.56492C1.56746 3.57386 2.48069 2.76355 3.54593 2.20376C4.61118 1.64398 5.79652 1.35149 6.99989 1.35149C8.20326 1.35149 9.38861 1.64398 10.4539 2.20376C11.5191 2.76355 12.4323 3.57386 13.1149 4.56492C13.2026 4.69303 13.2495 4.84466 13.2495 4.99992C13.2495 5.15517 13.2026 5.30681 13.1149 5.43492ZM6.99989 1.96492C6.39963 1.96492 5.81284 2.14292 5.31374 2.47641C4.81463 2.8099 4.42563 3.2839 4.19592 3.83847C3.96621 4.39305 3.9061 5.00328 4.02321 5.59201C4.14032 6.18075 4.42937 6.72153 4.85382 7.14599C5.27828 7.57044 5.81906 7.85949 6.40779 7.9766C6.99653 8.09371 7.60676 8.0336 8.16134 7.80389C8.71591 7.57418 9.18991 7.18517 9.5234 6.68607C9.85689 6.18697 10.0349 5.60018 10.0349 4.99992C10.0349 4.19498 9.71514 3.42302 9.14596 2.85385C8.57679 2.28467 7.80482 1.96492 6.99989 1.96492ZM6.99989 7.53492C6.49852 7.53492 6.0084 7.38624 5.59152 7.10769C5.17464 6.82914 4.84973 6.43323 4.65786 5.97002C4.46599 5.50681 4.41579 4.9971 4.5136 4.50536C4.61142 4.01362 4.85285 3.56193 5.20738 3.2074C5.5619 2.85287 6.0136 2.61144 6.50534 2.51363C6.99708 2.41581 7.50678 2.46601 7.97 2.65788C8.43321 2.84975 8.82912 3.17467 9.10767 3.59155C9.38622 4.00842 9.53489 4.49854 9.53489 4.99992C9.53357 5.67183 9.26607 6.31585 8.79095 6.79097C8.31583 7.26609 7.67181 7.53359 6.99989 7.53492ZM7.24989 3.29492C7.25841 3.36054 7.24056 3.42686 7.20026 3.47935C7.15996 3.53184 7.10049 3.5662 7.03489 3.57492C6.66755 3.63052 6.32764 3.80224 6.06493 4.06495C5.80222 4.32767 5.63049 4.66757 5.57489 5.03492C5.56652 5.09413 5.5372 5.14839 5.49225 5.18784C5.4473 5.22728 5.3897 5.24931 5.32989 5.24992H5.29489C5.22889 5.24 5.1694 5.2046 5.1292 5.15132C5.089 5.09803 5.0713 5.03111 5.07989 4.96492C5.15029 4.48998 5.3711 4.05012 5.70989 3.70992C6.05112 3.37255 6.49049 3.15199 6.96489 3.07992C7.03108 3.07132 7.09801 3.08903 7.15129 3.12922C7.20458 3.16942 7.23998 3.22891 7.24989 3.29492Z" fill="#819ACB"/>
</svg>
