<svg width="16" height="16" viewBox="0 0 16 16" fill="none" xmlns="http://www.w3.org/2000/svg">
<g clip-path="url(#clip0_736_109958)">
<path d="M9.43083 8.76459L7.3395 10.8673L5.14417 8.67192L7.23683 6.56792C7.36617 6.43792 7.36617 6.22592 7.2355 6.09659C7.1055 5.96792 6.89417 5.96659 6.76417 6.09792L4.67283 8.20059L3.5695 7.09726C3.4395 6.96726 3.22817 6.96726 3.09817 7.09726C2.96817 7.22726 2.96817 7.43859 3.09817 7.56859L3.4595 7.92992L2.29283 9.09659C1.1015 10.2879 1.02683 12.1793 2.06883 13.4593L0.0975 15.4306C-0.0325 15.5606 -0.0325 15.7719 0.0975 15.9019C0.162833 15.9673 0.248167 15.9993 0.3335 15.9993C0.418833 15.9993 0.504167 15.9666 0.5695 15.9019L2.54017 13.9313C3.13683 14.4173 3.8675 14.6606 4.59817 14.6606C5.43283 14.6606 6.2675 14.3426 6.90283 13.7073L8.0695 12.5406L8.43083 12.9019C8.49617 12.9673 8.5815 12.9993 8.66683 12.9993C8.75217 12.9993 8.8375 12.9666 8.90283 12.9019C9.03283 12.7719 9.03283 12.5606 8.90283 12.4306L7.81083 11.3386L9.9035 9.23459C10.0328 9.10459 10.0328 8.89259 9.90217 8.76326C9.7715 8.63392 9.56017 8.63392 9.43083 8.76459ZM6.4315 13.2359C5.42083 14.2466 3.77617 14.2466 2.76417 13.2359C1.7535 12.2246 1.75283 10.5799 2.76417 9.56859L3.93083 8.40192L7.59817 12.0693L6.4315 13.2359ZM15.9028 0.0972558C15.7728 -0.0327441 15.5615 -0.0327441 15.4315 0.0972558L13.4622 2.06659C12.1835 1.02659 10.2928 1.10192 9.1035 2.29126L7.9315 3.45926L7.5695 3.09726C7.4395 2.96726 7.22817 2.96726 7.09817 3.09726C6.96817 3.22726 6.96817 3.43859 7.09817 3.56859L12.4315 8.90192C12.4968 8.96725 12.5822 8.99926 12.6675 8.99926C12.7528 8.99926 12.8382 8.96659 12.9035 8.90192C13.0335 8.77192 13.0335 8.56059 12.9035 8.43059L12.5422 8.06925L13.7128 6.90192C14.3288 6.28659 14.6682 5.46792 14.6682 4.59726C14.6682 3.83726 14.4102 3.11726 13.9348 2.53726L15.9035 0.568589C16.0335 0.438589 16.0328 0.227256 15.9028 0.0972558ZM13.2408 6.42992L12.0702 7.59726L8.4035 3.93059L9.57483 2.76326C10.5855 1.75259 12.2308 1.75259 13.2415 2.76326C13.7315 3.25326 14.0015 3.90459 14.0015 4.59726C14.0015 5.28992 13.7315 5.94126 13.2408 6.42992Z" fill="#819ACB"/>
</g>
<defs>
<clipPath id="clip0_736_109958">
<rect width="16" height="16" fill="white"/>
</clipPath>
</defs>
</svg>
